<?xml version="1.0" encoding="utf-8"?>
<!-- Generator: Adobe Illustrator 27.5.0, SVG Export Plug-In . SVG Version: 6.00 Build 0)  -->
<svg version="1.1" id="Layer_1" xmlns="http://www.w3.org/2000/svg" xmlns:xlink="http://www.w3.org/1999/xlink" x="0px" y="0px"
	 viewBox="0 0 198.861 273.4" style="enable-background:new 0 0 198.861 273.4;" xml:space="preserve">
<g>
	<g>
		<path style="fill:#FFFFFF;" d="M195.648,134.861c-0.003-0.05-0.014-0.196-0.019-0.247c-0.007-0.084-0.017-0.167-0.029-0.249
			c-1.759-18.401-12.413-31.639-28.762-35.985c-5.051-15.638-19.179-21.305-31.219-21.305c-1.217,0-2.439,0.058-3.594,0.169
			l-0.221,0.022c-0.473,0.048-0.938,0.104-1.381,0.166l-0.346,0.051c-0.399,0.061-0.793,0.127-1.183,0.199l-0.409,0.078
			c-0.367,0.074-0.727,0.153-1.094,0.24l-0.392,0.094c-0.368,0.093-0.727,0.191-1.153,0.315l-0.278,0.08
			c-0.462,0.143-0.911,0.293-1.34,0.452c-1.672,0.618-3.207,1.096-4.695,1.461l-0.472,0.115c-0.357,0.082-0.713,0.152-1.036,0.215
			l-0.421,0.084c-0.469,0.082-0.935,0.153-1.389,0.207l-0.258,0.024c-0.381,0.041-0.761,0.077-1.133,0.1l-0.501,0.02
			c-0.233,0.009-0.469,0.017-0.703,0.021c-0.528-7.428-2.106-17.599-7.097-32.41C97.825,20.887,86.52,13.985,78.773,11.221
			c-0.719-0.257-1.481-0.41-2.337-0.466c-0.248-0.036-0.503-0.046-0.761-0.053c-0.236,0.002-0.482,0.021-0.743,0.054
			c-0.181,0.016-0.359,0.032-0.529,0.057c-0.38,0.052-0.764,0.128-1.108,0.215c-0.052,0.012-0.103,0.022-0.153,0.035
			c-0.079,0.019-0.157,0.04-0.236,0.064c-0.097,0.026-0.2,0.058-0.323,0.095c-0.319,0.102-0.641,0.222-0.946,0.347
			c-0.084,0.034-0.169,0.07-0.255,0.107c-0.035,0.017-0.079,0.034-0.086,0.037c-0.139,0.058-0.277,0.117-0.399,0.178
			c-0.24,0.114-0.48,0.244-0.726,0.38c-0.031,0.017-0.063,0.035-0.093,0.054c-0.012,0.007-0.1,0.058-0.11,0.064
			c-0.136,0.077-0.269,0.155-0.4,0.235c-0.096,0.056-0.22,0.13-0.293,0.178c-0.143,0.094-0.286,0.193-0.492,0.34
			c-0.027,0.02-0.056,0.04-0.084,0.061c-0.859,0.612-1.677,1.311-2.397,2.048c-0.028,0.027-0.057,0.057-0.086,0.087
			c-0.418,0.431-0.842,0.909-1.265,1.429c-0.089,0.109-0.177,0.226-0.314,0.408c-0.137,0.175-0.272,0.351-0.375,0.492
			c-0.069,0.089-0.137,0.179-0.186,0.25c-0.119,0.167-0.238,0.34-0.341,0.494c-0.098,0.144-0.193,0.295-0.289,0.446l-0.16,0.252
			c-0.09,0.139-0.179,0.276-0.264,0.419c-0.136,0.226-0.267,0.456-0.41,0.709c-0.098,0.177-0.195,0.355-0.285,0.525
			c-0.092,0.171-0.181,0.345-0.271,0.525c-0.152,0.303-0.301,0.616-0.437,0.918l-0.043,0.089c-0.066,0.138-0.131,0.275-0.186,0.4
			c-0.057,0.13-0.112,0.266-0.197,0.481c-0.134,0.325-0.263,0.655-0.388,0.993l-0.053,0.136c-0.055,0.145-0.109,0.288-0.171,0.461
			c-0.046,0.135-0.091,0.274-0.134,0.415l-0.034,0.109c-0.098,0.299-0.191,0.599-0.285,0.913c-0.08,0.272-0.157,0.545-0.224,0.798
			c-0.059,0.219-0.113,0.44-0.171,0.672c-0.057,0.234-0.112,0.472-0.163,0.7c-0.07,0.324-0.134,0.657-0.21,1.068l-0.035,0.184
			c-0.036,0.183-0.07,0.365-0.103,0.56l-0.075,0.485c-0.063,0.424-0.112,0.862-0.159,1.302l-0.035,0.306
			c-0.022,0.185-0.046,0.373-0.062,0.56l-0.021,0.258c-0.069,0.877-0.108,1.707-0.118,2.535c-0.004,0.462-0.003,0.905,0.004,1.337
			c0,0.006,0.003,0.157,0.003,0.157l0.009,0.355c0.006,0.263,0.014,0.521,0.023,0.771l0.03,0.632c0.013,0.211,0.025,0.415,0.04,0.6
			l0.055,0.705c0.004,0.045,0.008,0.089,0.013,0.133l0.033,0.315c0.003,0.033,0.008,0.08,0.013,0.126
			c0.027,0.257,0.058,0.505,0.088,0.731l0.021,0.164c0.779,5.674,3.009,9.255,6.635,10.644c0.241,0.092,0.483,0.169,0.719,0.234
			c0.042,0.013,0.154,0.042,0.198,0.053c0.187,0.046,0.372,0.087,0.52,0.113l0.212,0.036c0.034,0.006,0.067,0.011,0.101,0.015
			c0.133,0.02,0.266,0.034,0.471,0.054c0.073,0.007,0.234,0.019,0.308,0.022l0.245,0.008c0.032,0.001,0.138,0.002,0.17,0.002
			c1.737,0,3.533-0.544,5.085-1.539c0.052-0.007,0.133-0.014,0.246-0.014c1.299,0,3.723,0.813,6.67,3.085
			c6.289,5.976,9.343,13.666,10.824,19.802c-0.089-0.025-0.176-0.05-0.264-0.073c-0.12-0.031-0.241-0.058-0.363-0.078
			c-2.354-0.582-4.803-0.875-7.285-0.875c-16.35,0-30.718,12.643-35.41,17.25c-12.233,0.128-22.505,7.058-30.535,20.603
			c-0.057,0.097-0.111,0.194-0.161,0.294c-9.606,19.107-11.036,43.144-3.641,61.239c6.848,16.757,10.028,26.544,10.765,40.229
			l0.021,0.392c0.045,0.9,0.082,1.815,0.105,2.773c0.884,29.755,22.564,42.487,31.453,42.784c4.188,0.162,7.578-1.308,9.962-2.854
			c4.73,4.165,14.091,11.003,26.25,12.889c2.384,0.368,4.684,0.556,6.839,0.556c12.53,0,18.181-6.303,20.594-8.994
			c0.172-0.191,0.329-0.368,0.468-0.515c0.289-0.309,0.89-0.948,3.427-0.948c1.801,0,4.23,0.335,7.304,1.013
			c2.792,0.568,5.268,0.845,7.566,0.845c10.313,0,15.421-5.504,21.887-12.472c1.089-1.173,2.246-2.421,3.509-3.732
			c0.046-0.047,0.09-0.095,0.133-0.143c9.985-11.23,11.873-24.816,13.043-38.92c0.075-0.688,0.163-1.368,0.26-2.044
			c0.069-0.483,0.15-0.961,0.231-1.448l0.101-0.621c0.09-0.512,0.19-1.017,0.296-1.541l0.098-0.505
			c0.107-0.519,0.225-1.033,0.346-1.554l0.102-0.448c0.126-0.531,0.261-1.056,0.399-1.585l0.1-0.39
			c0.146-0.547,0.3-1.088,0.455-1.627l0.085-0.302c0.171-0.579,0.347-1.152,0.516-1.688l0.066-0.213
			c0.198-0.622,0.402-1.239,0.609-1.85c1.659-4.878,3.688-9.628,5.65-14.222c4.714-11.037,9.589-22.451,9.409-35.92
			c-0.012-1.506-0.084-2.993-0.216-4.489C195.656,134.956,195.652,134.909,195.648,134.861z"/>
		<path style="fill:#F1F1F1;" d="M195.09,134.261c-0.004-0.049-0.015-0.195-0.018-0.246c-0.007-0.084-0.018-0.167-0.029-0.25
			c-1.76-18.4-12.414-31.639-28.762-35.985c-5.051-15.638-19.18-21.304-31.219-21.304c-1.218,0-2.439,0.057-3.595,0.168
			l-0.221,0.022c-0.474,0.049-0.938,0.104-1.381,0.166l-0.345,0.051c-0.399,0.062-0.794,0.127-1.183,0.199l-0.409,0.078
			c-0.368,0.075-0.728,0.153-1.095,0.241l-0.391,0.093c-0.37,0.093-0.727,0.191-1.153,0.315l-0.279,0.08
			c-0.461,0.144-0.91,0.294-1.34,0.452c-1.672,0.618-3.206,1.096-4.694,1.461l-0.472,0.115c-0.358,0.082-0.714,0.152-1.037,0.215
			l-0.42,0.084c-0.469,0.083-0.936,0.153-1.389,0.208l-0.259,0.024c-0.382,0.041-0.761,0.077-1.133,0.101l-0.5,0.02
			c-0.234,0.008-0.469,0.016-0.704,0.02c-0.527-7.427-2.273-17.544-7.096-32.41c-9.016-27.792-20.007-34.793-27.753-37.557
			c-0.719-0.258-1.481-0.411-2.337-0.467c-0.248-0.036-0.503-0.045-0.761-0.053c-0.236,0.002-0.483,0.022-0.743,0.054
			c-0.182,0.017-0.359,0.032-0.53,0.057c-0.381,0.052-0.763,0.133-1.108,0.215c-0.052,0.012-0.102,0.023-0.153,0.035
			c-0.078,0.019-0.156,0.042-0.235,0.065c-0.096,0.027-0.2,0.057-0.323,0.095c-0.321,0.1-0.642,0.222-0.946,0.346
			c-0.084,0.034-0.17,0.071-0.255,0.107c-0.037,0.017-0.079,0.035-0.086,0.037c-0.14,0.058-0.277,0.118-0.399,0.178
			c-0.24,0.115-0.479,0.247-0.727,0.38c-0.031,0.017-0.063,0.035-0.093,0.054c-0.011,0.007-0.099,0.058-0.109,0.065
			c-0.136,0.076-0.269,0.156-0.4,0.234c-0.096,0.058-0.221,0.13-0.293,0.178c-0.144,0.094-0.287,0.192-0.493,0.34
			c-0.027,0.02-0.056,0.04-0.083,0.061c-0.851,0.625-1.661,1.329-2.397,2.048c-0.028,0.028-0.057,0.057-0.086,0.088
			c-0.414,0.434-0.843,0.908-1.266,1.428c-0.088,0.109-0.175,0.226-0.313,0.408c-0.135,0.177-0.271,0.354-0.375,0.492
			c-0.068,0.09-0.137,0.179-0.187,0.25c-0.119,0.167-0.236,0.341-0.341,0.495c-0.098,0.143-0.193,0.294-0.289,0.445l-0.159,0.253
			c-0.091,0.138-0.179,0.275-0.265,0.418c-0.137,0.226-0.268,0.456-0.409,0.709c-0.099,0.176-0.195,0.356-0.285,0.525
			c-0.091,0.172-0.181,0.345-0.272,0.526c-0.152,0.303-0.301,0.615-0.438,0.917l-0.042,0.089c-0.066,0.138-0.131,0.275-0.186,0.4
			c-0.059,0.13-0.11,0.267-0.197,0.481c-0.132,0.326-0.263,0.655-0.388,0.993l-0.053,0.136c-0.056,0.145-0.111,0.288-0.171,0.461
			c-0.047,0.136-0.092,0.274-0.136,0.415l-0.032,0.109c-0.098,0.3-0.192,0.599-0.285,0.913c-0.081,0.271-0.157,0.545-0.224,0.798
			c-0.059,0.219-0.114,0.441-0.171,0.673c-0.057,0.233-0.112,0.471-0.163,0.7c-0.072,0.323-0.136,0.656-0.21,1.067l-0.035,0.184
			c-0.036,0.183-0.07,0.365-0.102,0.56l-0.075,0.484c-0.063,0.424-0.112,0.862-0.16,1.302l-0.034,0.306
			c-0.023,0.186-0.046,0.373-0.062,0.56l-0.022,0.258c-0.069,0.877-0.107,1.708-0.117,2.535c-0.005,0.463-0.004,0.905,0.004,1.338
			c0,0.005,0.002,0.157,0.002,0.157l0.01,0.355c0.005,0.262,0.012,0.521,0.022,0.771l0.03,0.631c0.014,0.212,0.026,0.415,0.041,0.6
			l0.054,0.706c0.005,0.044,0.009,0.088,0.014,0.132l0.032,0.316c0.003,0.032,0.008,0.079,0.014,0.126
			c0.031,0.255,0.056,0.504,0.086,0.73l0.023,0.165c0.778,5.673,3.008,9.254,6.634,10.642c0.241,0.092,0.481,0.17,0.72,0.235
			c0.041,0.012,0.154,0.042,0.197,0.053c0.188,0.045,0.373,0.086,0.521,0.113l0.21,0.035c0.035,0.007,0.069,0.011,0.104,0.015
			c0.133,0.019,0.266,0.037,0.47,0.055c0.073,0.007,0.235,0.018,0.308,0.021l0.245,0.007c0.033,0.001,0.138,0.002,0.17,0.002
			c1.736,0,3.533-0.544,5.085-1.539c0.053-0.007,0.134-0.013,0.245-0.013c1.3,0,3.725,0.813,6.67,3.085
			c6.291,5.976,9.344,13.665,10.825,19.801c-0.088-0.024-0.176-0.05-0.263-0.073c-0.121-0.031-0.242-0.058-0.364-0.078
			c-2.354-0.581-4.803-0.875-7.284-0.875c-16.35,0-30.718,12.643-35.411,17.25c-12.232,0.128-22.504,7.058-30.535,20.603
			c-0.057,0.097-0.11,0.194-0.16,0.295c-9.513,19.153-11.036,43.144-3.642,61.239c6.849,16.757,10.028,26.543,10.765,40.228
			l0.02,0.392c0.047,0.9,0.082,1.815,0.108,2.773c0.808,29.758,22.563,42.464,31.453,42.784c4.188,0.151,7.577-1.308,9.961-2.854
			c4.732,4.165,14.091,11.003,26.25,12.889c2.385,0.368,4.685,0.556,6.839,0.556c12.531,0,18.181-6.302,20.594-8.994
			c0.172-0.191,0.33-0.368,0.468-0.515c0.289-0.309,0.89-0.948,3.428-0.948c1.801,0,4.225,0.359,7.304,1.013
			c2.787,0.593,5.268,0.845,7.566,0.845c10.313,0,15.421-5.504,21.886-12.472c1.089-1.172,2.241-2.426,3.51-3.731
			c0.044-0.046,0.09-0.095,0.132-0.144c9.985-11.23,11.674-24.833,13.042-38.92c0.067-0.689,0.164-1.368,0.262-2.044
			c0.069-0.482,0.149-0.961,0.232-1.448l0.1-0.621c0.091-0.512,0.191-1.017,0.296-1.541l0.099-0.505
			c0.106-0.519,0.225-1.033,0.345-1.554l0.103-0.448c0.126-0.531,0.261-1.055,0.397-1.585l0.102-0.39
			c0.146-0.547,0.3-1.088,0.455-1.627l0.085-0.302c0.171-0.579,0.347-1.151,0.516-1.688l0.066-0.213
			c0.197-0.622,0.402-1.239,0.608-1.851c1.659-4.878,3.688-9.628,5.649-14.222c4.716-11.037,9.547-22.45,9.409-35.92
			c-0.015-1.505-0.074-2.994-0.215-4.489C195.096,134.357,195.093,134.309,195.09,134.261z"/>
		<path style="fill:#E2E2E2;" d="M194.53,133.661c-0.004-0.05-0.013-0.196-0.018-0.248c-0.008-0.083-0.018-0.167-0.029-0.248
			c-1.76-18.4-12.414-31.639-28.762-35.985c-5.051-15.638-19.18-21.306-31.22-21.306c-1.217,0-2.439,0.059-3.594,0.17l-0.222,0.022
			c-0.472,0.048-0.938,0.104-1.38,0.166l-0.345,0.051c-0.4,0.061-0.794,0.127-1.184,0.199l-0.409,0.078
			c-0.367,0.074-0.727,0.153-1.093,0.24l-0.393,0.094c-0.368,0.093-0.727,0.191-1.152,0.315l-0.278,0.08
			c-0.463,0.144-0.912,0.293-1.341,0.452c-1.672,0.618-3.206,1.096-4.694,1.461l-0.472,0.115c-0.358,0.082-0.714,0.152-1.036,0.215
			l-0.421,0.084c-0.469,0.082-0.935,0.153-1.389,0.207l-0.259,0.024c-0.381,0.041-0.761,0.077-1.132,0.1l-0.501,0.019
			c-0.234,0.009-0.469,0.017-0.704,0.021c-0.527-7.428-2.273-17.543-7.097-32.41c-9.017-27.792-20.007-34.793-27.752-37.558
			c-0.72-0.257-1.481-0.41-2.337-0.466c-0.248-0.036-0.504-0.046-0.761-0.053c-0.237,0.002-0.483,0.022-0.744,0.054
			c-0.181,0.016-0.358,0.032-0.529,0.057c-0.38,0.052-0.763,0.132-1.108,0.215c-0.051,0.012-0.102,0.023-0.154,0.035
			c-0.077,0.019-0.156,0.041-0.234,0.064c-0.097,0.027-0.2,0.056-0.323,0.094c-0.321,0.099-0.642,0.224-0.946,0.348
			c-0.085,0.034-0.17,0.07-0.255,0.107c-0.036,0.017-0.08,0.034-0.086,0.037c-0.14,0.059-0.278,0.118-0.4,0.178
			c-0.239,0.115-0.479,0.245-0.726,0.38c-0.031,0.017-0.063,0.035-0.093,0.054c-0.012,0.007-0.1,0.058-0.109,0.063
			c-0.136,0.077-0.269,0.158-0.401,0.236c-0.095,0.057-0.22,0.13-0.292,0.178c-0.143,0.094-0.287,0.192-0.493,0.34
			c-0.027,0.02-0.056,0.04-0.083,0.061c-0.851,0.625-1.667,1.321-2.397,2.048c-0.028,0.027-0.058,0.057-0.087,0.087
			c-0.413,0.434-0.842,0.909-1.264,1.429c-0.09,0.109-0.176,0.227-0.314,0.408c-0.134,0.176-0.271,0.354-0.375,0.492
			c-0.068,0.09-0.136,0.179-0.187,0.25c-0.119,0.167-0.237,0.34-0.341,0.494c-0.098,0.144-0.193,0.295-0.289,0.446l-0.161,0.252
			c-0.089,0.139-0.177,0.275-0.262,0.419c-0.136,0.226-0.269,0.456-0.41,0.709c-0.099,0.177-0.195,0.355-0.286,0.525
			c-0.091,0.17-0.181,0.345-0.271,0.524c-0.152,0.304-0.3,0.617-0.438,0.919l-0.042,0.089c-0.065,0.138-0.13,0.275-0.186,0.4
			c-0.057,0.13-0.109,0.267-0.196,0.481c-0.132,0.326-0.264,0.655-0.389,0.993l-0.053,0.136c-0.055,0.144-0.11,0.288-0.17,0.461
			c-0.048,0.135-0.091,0.274-0.135,0.415l-0.034,0.109c-0.098,0.299-0.192,0.599-0.285,0.913c-0.079,0.271-0.156,0.545-0.224,0.798
			c-0.058,0.219-0.113,0.441-0.17,0.672c-0.057,0.234-0.113,0.472-0.163,0.699c-0.071,0.325-0.135,0.658-0.21,1.069l-0.036,0.184
			c-0.035,0.183-0.069,0.365-0.102,0.56l-0.076,0.485c-0.063,0.424-0.111,0.862-0.159,1.302l-0.035,0.306
			c-0.022,0.185-0.045,0.373-0.062,0.56l-0.021,0.258c-0.069,0.877-0.107,1.707-0.117,2.535c-0.005,0.462,0,0.905,0.004,1.337
			c0,0.006,0.003,0.157,0.003,0.157l0.008,0.354c0.006,0.264,0.014,0.521,0.024,0.771l0.03,0.633c0.012,0.211,0.025,0.415,0.039,0.6
			l0.056,0.705c0.003,0.045,0.007,0.089,0.012,0.133l0.033,0.315c0.003,0.033,0.008,0.08,0.014,0.126
			c0.029,0.257,0.057,0.504,0.087,0.731l0.022,0.164c0.78,5.673,3.009,9.255,6.635,10.644c0.242,0.092,0.483,0.167,0.719,0.234
			c0.042,0.013,0.155,0.042,0.198,0.053c0.187,0.045,0.372,0.087,0.521,0.113l0.211,0.036c0.034,0.006,0.068,0.011,0.103,0.015
			c0.133,0.02,0.265,0.036,0.471,0.054c0.073,0.007,0.233,0.019,0.307,0.021l0.245,0.008c0.032,0.001,0.138,0.002,0.169,0.002
			c1.738,0,3.534-0.544,5.085-1.539c0.053-0.008,0.135-0.014,0.247-0.014c1.299,0,3.723,0.813,6.67,3.085
			c6.29,5.977,9.343,13.666,10.824,19.802c-0.088-0.025-0.175-0.05-0.264-0.073c-0.12-0.031-0.241-0.058-0.363-0.078
			c-2.354-0.582-4.803-0.875-7.284-0.875c-16.351,0-30.719,12.643-35.411,17.25c-12.232,0.128-22.557,7.026-30.535,20.602
			c-0.057,0.098-0.11,0.195-0.161,0.295c-9.606,19.106-11.035,43.145-3.64,61.239c6.848,16.757,10.026,26.544,10.765,40.229
			l0.02,0.392c0.046,0.9,0.079,1.816,0.106,2.773c0.81,29.757,22.563,42.464,31.453,42.784c4.188,0.15,7.578-1.308,9.961-2.855
			c4.73,4.166,14.092,11.004,26.251,12.89c2.383,0.368,4.683,0.556,6.838,0.556c12.53,0,18.181-6.303,20.594-8.994
			c0.172-0.191,0.329-0.368,0.468-0.515c0.289-0.309,0.891-0.948,3.428-0.948c1.801,0,4.225,0.36,7.302,1.013
			c2.788,0.592,5.269,0.845,7.568,0.845c10.313,0,15.42-5.504,21.886-12.473c1.089-1.172,2.241-2.425,3.509-3.73
			c0.046-0.047,0.09-0.095,0.133-0.143c10.025-11.194,11.683-24.834,13.043-38.92c0.066-0.688,0.163-1.368,0.261-2.044
			c0.069-0.483,0.149-0.961,0.232-1.448l0.1-0.621c0.09-0.512,0.19-1.017,0.296-1.541l0.099-0.505
			c0.106-0.519,0.224-1.033,0.346-1.554l0.102-0.448c0.126-0.531,0.26-1.056,0.398-1.585l0.101-0.39
			c0.145-0.547,0.298-1.088,0.454-1.627l0.086-0.302c0.17-0.579,0.347-1.153,0.515-1.688l0.066-0.213
			c0.198-0.622,0.403-1.239,0.609-1.85c1.66-4.878,3.688-9.628,5.65-14.222c4.715-11.037,9.551-22.451,9.409-35.92
			c-0.016-1.506-0.102-2.991-0.216-4.489C194.538,133.756,194.533,133.709,194.53,133.661z"/>
		<path style="fill:#D4D4D4;" d="M193.972,133.061c-0.004-0.05-0.014-0.196-0.018-0.247c-0.009-0.083-0.018-0.167-0.03-0.249
			c-1.759-18.4-12.413-31.639-28.763-35.985c-5.05-15.638-19.178-21.305-31.218-21.305c-1.217,0-2.44,0.058-3.594,0.169
			l-0.222,0.022c-0.472,0.048-0.938,0.104-1.38,0.166l-0.346,0.051c-0.4,0.061-0.794,0.127-1.183,0.199l-0.409,0.078
			c-0.367,0.074-0.727,0.153-1.093,0.24l-0.392,0.094c-0.368,0.093-0.727,0.191-1.153,0.315l-0.278,0.08
			c-0.462,0.144-0.912,0.293-1.34,0.452c-1.673,0.618-3.207,1.096-4.695,1.461l-0.472,0.115c-0.357,0.082-0.713,0.152-1.036,0.215
			l-0.42,0.084c-0.471,0.082-0.936,0.153-1.389,0.207l-0.259,0.024c-0.381,0.041-0.761,0.077-1.132,0.1l-0.503,0.021
			c-0.232,0.008-0.468,0.016-0.702,0.02c-0.529-7.428-2.273-17.543-7.098-32.41C95.833,19.186,84.843,12.185,77.096,9.42
			c-0.718-0.257-1.482-0.41-2.336-0.465c-0.248-0.037-0.504-0.047-0.761-0.054c-0.237,0.002-0.482,0.022-0.743,0.054
			c-0.182,0.016-0.359,0.032-0.529,0.057c-0.38,0.052-0.763,0.133-1.108,0.215c-0.051,0.013-0.103,0.023-0.154,0.035
			c-0.078,0.019-0.156,0.041-0.235,0.064c-0.097,0.027-0.2,0.057-0.323,0.095c-0.32,0.099-0.641,0.223-0.946,0.347
			c-0.084,0.034-0.169,0.07-0.254,0.107c-0.036,0.017-0.08,0.034-0.087,0.037c-0.139,0.059-0.278,0.118-0.399,0.178
			c-0.239,0.115-0.48,0.245-0.726,0.381c-0.031,0.017-0.063,0.034-0.093,0.053c-0.012,0.007-0.101,0.058-0.11,0.064
			c-0.136,0.077-0.268,0.157-0.4,0.235c-0.095,0.057-0.22,0.13-0.293,0.178c-0.143,0.094-0.287,0.192-0.492,0.34
			c-0.027,0.019-0.056,0.041-0.083,0.06c-0.846,0.632-1.669,1.322-2.398,2.048c-0.028,0.027-0.058,0.057-0.086,0.087
			c-0.414,0.435-0.842,0.91-1.265,1.429c-0.089,0.109-0.175,0.227-0.313,0.408c-0.135,0.177-0.271,0.353-0.375,0.492
			c-0.068,0.09-0.137,0.179-0.187,0.25c-0.119,0.167-0.238,0.34-0.341,0.494c-0.098,0.145-0.194,0.295-0.289,0.446l-0.161,0.252
			c-0.089,0.139-0.177,0.276-0.263,0.419c-0.135,0.226-0.268,0.456-0.41,0.709c-0.099,0.177-0.195,0.355-0.286,0.525
			c-0.091,0.171-0.18,0.345-0.271,0.525c-0.152,0.303-0.301,0.616-0.438,0.918l-0.042,0.089c-0.066,0.138-0.131,0.275-0.186,0.4
			c-0.057,0.13-0.11,0.267-0.197,0.481c-0.132,0.326-0.263,0.655-0.388,0.993l-0.053,0.136c-0.055,0.145-0.111,0.288-0.171,0.461
			c-0.047,0.136-0.091,0.274-0.134,0.415l-0.035,0.109c-0.097,0.299-0.191,0.599-0.284,0.913c-0.08,0.272-0.156,0.545-0.224,0.798
			c-0.058,0.219-0.113,0.441-0.171,0.672c-0.057,0.234-0.113,0.472-0.162,0.7c-0.071,0.324-0.135,0.657-0.211,1.068l-0.036,0.184
			c-0.035,0.183-0.068,0.365-0.102,0.559l-0.075,0.485c-0.063,0.424-0.112,0.862-0.159,1.302l-0.035,0.306
			c-0.022,0.186-0.045,0.373-0.063,0.56l-0.02,0.258c-0.069,0.877-0.108,1.707-0.117,2.535c-0.006,0.462,0,0.905,0.003,1.337
			c0,0.006,0.003,0.157,0.003,0.157l0.009,0.355c0.006,0.263,0.014,0.521,0.023,0.771l0.03,0.632c0.013,0.211,0.026,0.415,0.04,0.6
			l0.055,0.705c0.004,0.045,0.008,0.089,0.013,0.133l0.033,0.315c0.003,0.033,0.008,0.08,0.012,0.126
			c0.027,0.257,0.059,0.505,0.089,0.731l0.021,0.164c0.779,5.674,3.009,9.255,6.635,10.644c0.241,0.092,0.483,0.167,0.718,0.234
			c0.042,0.013,0.155,0.042,0.199,0.053c0.187,0.045,0.372,0.087,0.52,0.113l0.212,0.036c0.034,0.006,0.068,0.011,0.102,0.015
			c0.133,0.02,0.266,0.034,0.472,0.054c0.072,0.007,0.233,0.019,0.306,0.021l0.246,0.008c0.032,0.001,0.138,0.002,0.169,0.002
			c1.738,0,3.534-0.544,5.085-1.538c0.053-0.008,0.134-0.015,0.247-0.015c1.299,0,3.723,0.814,6.67,3.085
			c6.289,5.977,9.342,13.666,10.823,19.802c-0.087-0.025-0.175-0.05-0.263-0.073c-0.12-0.031-0.241-0.058-0.364-0.078
			c-2.354-0.582-4.802-0.875-7.284-0.875c-16.351,0-30.718,12.643-35.41,17.25c-12.233,0.128-22.504,7.058-30.535,20.602
			c-0.057,0.097-0.111,0.194-0.161,0.295c-9.607,19.106-11.036,43.143-3.641,61.238c6.848,16.757,10.027,26.544,10.765,40.229
			l0.02,0.392c0.045,0.9,0.081,1.815,0.106,2.773c0.884,29.755,22.563,42.464,31.453,42.784c4.19,0.15,7.578-1.308,9.962-2.853
			c4.73,4.165,14.091,11.003,26.25,12.889c2.384,0.368,4.684,0.556,6.839,0.556c12.53,0,18.181-6.303,20.594-8.994
			c0.172-0.191,0.329-0.368,0.467-0.515c0.29-0.309,0.892-0.948,3.428-0.948c1.801,0,4.225,0.36,7.303,1.014
			c2.788,0.591,5.269,0.844,7.566,0.844c10.314,0,15.422-5.504,21.888-12.472c1.089-1.173,2.239-2.425,3.509-3.731
			c0.046-0.047,0.089-0.095,0.133-0.144c10.024-11.194,11.683-24.833,13.043-38.92c0.066-0.688,0.163-1.368,0.261-2.044
			c0.068-0.483,0.149-0.961,0.23-1.448l0.101-0.621c0.09-0.512,0.19-1.017,0.296-1.541l0.099-0.505
			c0.106-0.519,0.223-1.033,0.346-1.554l0.101-0.448c0.126-0.531,0.26-1.056,0.399-1.585l0.101-0.39
			c0.145-0.547,0.298-1.088,0.454-1.627l0.085-0.302c0.171-0.579,0.347-1.152,0.515-1.688l0.067-0.213
			c0.198-0.622,0.402-1.239,0.609-1.851c1.659-4.878,3.688-9.628,5.65-14.222c4.715-11.037,9.55-22.451,9.409-35.92
			c-0.017-1.506-0.102-2.991-0.216-4.489C193.98,133.155,193.975,133.108,193.972,133.061z"/>
		<path style="fill:#C5C5C5;" d="M193.413,132.461c-0.004-0.05-0.014-0.196-0.019-0.247c-0.008-0.083-0.017-0.167-0.029-0.249
			c-1.759-18.4-12.414-31.639-28.762-35.985c-5.051-15.638-19.18-21.305-31.219-21.305c-1.218,0-2.439,0.057-3.594,0.169
			l-0.221,0.022c-0.473,0.048-0.938,0.104-1.382,0.166l-0.345,0.051c-0.399,0.061-0.794,0.127-1.183,0.199l-0.409,0.078
			c-0.368,0.074-0.727,0.153-1.094,0.24l-0.392,0.094c-0.369,0.093-0.727,0.191-1.153,0.315l-0.278,0.08
			c-0.462,0.143-0.911,0.293-1.341,0.452c-1.672,0.618-3.206,1.096-4.694,1.461l-0.472,0.115c-0.358,0.082-0.713,0.152-1.036,0.215
			l-0.421,0.084c-0.469,0.082-0.935,0.153-1.389,0.207l-0.259,0.024c-0.381,0.041-0.76,0.077-1.132,0.1l-0.501,0.021
			c-0.233,0.008-0.469,0.016-0.704,0.02c-0.527-7.428-2.273-17.544-7.096-32.41C95.275,18.585,84.284,11.585,76.538,8.82
			c-0.719-0.257-1.481-0.41-2.337-0.466c-0.248-0.036-0.503-0.046-0.761-0.053c-0.236,0.002-0.483,0.022-0.743,0.054
			c-0.182,0.016-0.359,0.032-0.529,0.057c-0.38,0.052-0.763,0.132-1.108,0.215c-0.052,0.012-0.103,0.022-0.154,0.035
			c-0.078,0.019-0.157,0.041-0.235,0.064c-0.097,0.027-0.2,0.057-0.323,0.095C70.025,8.92,69.705,9.044,69.4,9.168
			c-0.084,0.034-0.169,0.07-0.255,0.107c-0.036,0.017-0.079,0.034-0.086,0.037c-0.14,0.059-0.277,0.118-0.399,0.178
			c-0.24,0.115-0.479,0.245-0.726,0.38c-0.031,0.017-0.063,0.035-0.093,0.054c-0.012,0.007-0.1,0.058-0.11,0.064
			c-0.136,0.077-0.269,0.157-0.4,0.235c-0.095,0.057-0.22,0.13-0.293,0.178c-0.144,0.094-0.287,0.192-0.492,0.34
			c-0.028,0.02-0.057,0.04-0.084,0.061c-0.851,0.625-1.667,1.322-2.397,2.048c-0.028,0.027-0.057,0.057-0.086,0.087
			c-0.418,0.431-0.842,0.909-1.265,1.429c-0.089,0.109-0.176,0.227-0.313,0.408c-0.135,0.177-0.271,0.353-0.375,0.492
			c-0.068,0.09-0.137,0.179-0.187,0.25c-0.12,0.167-0.238,0.34-0.342,0.494c-0.097,0.145-0.192,0.295-0.288,0.446l-0.16,0.252
			c-0.09,0.139-0.179,0.276-0.264,0.419c-0.136,0.226-0.268,0.455-0.41,0.709c-0.099,0.177-0.195,0.355-0.285,0.524
			c-0.092,0.172-0.181,0.346-0.272,0.526c-0.153,0.303-0.301,0.616-0.438,0.918l-0.042,0.089c-0.066,0.138-0.131,0.275-0.185,0.4
			c-0.058,0.129-0.11,0.267-0.197,0.481c-0.132,0.326-0.263,0.655-0.388,0.993l-0.053,0.136c-0.055,0.145-0.111,0.288-0.171,0.461
			c-0.047,0.136-0.091,0.274-0.134,0.415l-0.034,0.109c-0.098,0.299-0.192,0.599-0.285,0.913c-0.081,0.272-0.156,0.545-0.224,0.798
			c-0.058,0.219-0.114,0.441-0.171,0.672c-0.057,0.234-0.112,0.472-0.163,0.7c-0.07,0.324-0.134,0.657-0.21,1.068l-0.035,0.184
			c-0.036,0.183-0.07,0.365-0.102,0.559l-0.075,0.485c-0.063,0.424-0.112,0.862-0.159,1.302l-0.035,0.306
			c-0.022,0.185-0.046,0.373-0.062,0.56l-0.022,0.258c-0.068,0.877-0.107,1.707-0.117,2.535c-0.005,0.462,0,0.905,0.004,1.337
			c0,0.006,0.003,0.157,0.003,0.157l0.009,0.355c0.006,0.263,0.013,0.521,0.023,0.771l0.03,0.632c0.013,0.211,0.025,0.415,0.04,0.6
			l0.055,0.705c0.004,0.045,0.008,0.089,0.013,0.133l0.033,0.315c0.002,0.033,0.007,0.08,0.013,0.126
			c0.029,0.257,0.057,0.505,0.087,0.731l0.022,0.164c0.779,5.674,3.008,9.255,6.635,10.643c0.241,0.092,0.482,0.167,0.719,0.234
			c0.041,0.013,0.154,0.042,0.198,0.053c0.187,0.045,0.372,0.087,0.52,0.113l0.211,0.036c0.034,0.006,0.068,0.011,0.103,0.015
			c0.133,0.019,0.266,0.034,0.471,0.054c0.073,0.007,0.234,0.019,0.308,0.021l0.245,0.008c0.032,0.001,0.137,0.002,0.169,0.002
			c1.737,0,3.533-0.544,5.085-1.539c0.053-0.007,0.134-0.014,0.247-0.014c1.298,0,3.723,0.813,6.669,3.085
			c6.29,5.977,9.343,13.666,10.824,19.802c-0.088-0.025-0.175-0.05-0.263-0.073c-0.12-0.031-0.242-0.058-0.364-0.078
			c-2.354-0.582-4.803-0.875-7.284-0.875c-16.35,0-30.718,12.643-35.41,17.25c-12.233,0.128-22.505,7.057-30.535,20.603
			c-0.058,0.097-0.111,0.194-0.161,0.295c-9.607,19.106-11.036,43.144-3.641,61.238c6.848,16.757,10.027,26.544,10.765,40.228
			l0.02,0.393c0.046,0.9,0.08,1.816,0.107,2.773c0.81,29.757,22.563,42.464,31.453,42.784c4.188,0.15,7.578-1.308,9.961-2.854
			c4.731,4.165,14.092,11.003,26.251,12.889c2.384,0.368,4.684,0.556,6.839,0.556c12.53,0,18.181-6.303,20.593-8.994
			c0.173-0.191,0.33-0.368,0.468-0.515c0.289-0.31,0.891-0.948,3.428-0.948c1.801,0,4.225,0.36,7.304,1.013
			c2.787,0.592,5.268,0.845,7.566,0.845c10.313,0,15.421-5.504,21.887-12.472c1.088-1.173,2.24-2.426,3.509-3.731
			c0.045-0.047,0.09-0.095,0.133-0.144c9.984-11.23,11.683-24.833,13.042-38.92c0.066-0.689,0.163-1.368,0.261-2.044
			c0.069-0.483,0.149-0.961,0.231-1.448l0.101-0.621c0.09-0.512,0.19-1.017,0.295-1.541l0.099-0.505
			c0.107-0.519,0.225-1.033,0.346-1.554l0.102-0.448c0.126-0.531,0.261-1.056,0.398-1.585l0.101-0.39
			c0.146-0.547,0.3-1.088,0.455-1.628l0.085-0.301c0.171-0.579,0.347-1.152,0.516-1.689l0.066-0.213
			c0.197-0.622,0.402-1.239,0.608-1.851c1.66-4.878,3.689-9.628,5.651-14.222c4.714-11.037,9.55-22.451,9.409-35.92
			c-0.017-1.506-0.102-2.991-0.217-4.489C193.42,132.556,193.416,132.509,193.413,132.461z"/>
		<path style="fill:#B7B7B7;" d="M192.854,131.861c-0.003-0.051-0.013-0.197-0.018-0.248c-0.008-0.083-0.017-0.167-0.029-0.248
			c-1.758-18.4-12.413-31.639-28.762-35.985c-5.051-15.639-19.18-21.306-31.22-21.306c-1.217,0-2.438,0.059-3.594,0.17l-0.22,0.021
			c-0.474,0.048-0.938,0.104-1.382,0.167l-0.345,0.051c-0.398,0.061-0.794,0.127-1.184,0.199l-0.409,0.077
			c-0.367,0.074-0.726,0.154-1.093,0.241l-0.393,0.093c-0.367,0.093-0.727,0.192-1.152,0.316l-0.277,0.079
			c-0.464,0.144-0.912,0.294-1.342,0.453c-1.671,0.617-3.206,1.095-4.694,1.461l-0.472,0.115c-0.358,0.081-0.713,0.152-1.036,0.215
			l-0.421,0.084c-0.469,0.082-0.934,0.152-1.389,0.207l-0.259,0.024c-0.38,0.04-0.761,0.076-1.132,0.099l-0.5,0.021
			c-0.235,0.008-0.47,0.016-0.705,0.02c-0.527-7.427-2.272-17.544-7.095-32.41C94.718,17.985,83.725,10.984,75.98,8.221
			c-0.72-0.258-1.482-0.411-2.338-0.466c-0.248-0.036-0.502-0.046-0.761-0.053c-0.236,0.001-0.482,0.022-0.744,0.054
			c-0.18,0.016-0.358,0.032-0.528,0.056c-0.381,0.052-0.763,0.133-1.108,0.216c-0.051,0.012-0.102,0.022-0.153,0.034
			c-0.079,0.017-0.157,0.041-0.236,0.064c-0.097,0.027-0.201,0.057-0.323,0.095c-0.32,0.099-0.642,0.223-0.946,0.347
			c-0.084,0.034-0.171,0.07-0.254,0.107c-0.036,0.017-0.081,0.034-0.087,0.038c-0.136,0.066-0.278,0.118-0.4,0.178
			c-0.239,0.115-0.479,0.242-0.726,0.38c-0.03,0.017-0.063,0.034-0.093,0.053c-0.011,0.008-0.1,0.059-0.109,0.064
			c-0.136,0.077-0.268,0.158-0.4,0.236c-0.096,0.057-0.221,0.129-0.293,0.177c-0.144,0.093-0.288,0.191-0.493,0.341
			c-0.026,0.02-0.056,0.04-0.083,0.061c-0.851,0.625-1.666,1.321-2.397,2.048c-0.027,0.026-0.056,0.057-0.086,0.087
			c-0.421,0.428-0.839,0.912-1.264,1.429c-0.09,0.109-0.177,0.226-0.314,0.407c-0.135,0.176-0.271,0.353-0.376,0.493
			c-0.066,0.09-0.135,0.179-0.186,0.25c-0.118,0.168-0.237,0.341-0.341,0.494c-0.098,0.144-0.193,0.295-0.29,0.445l-0.159,0.252
			c-0.091,0.14-0.177,0.276-0.263,0.42c-0.136,0.226-0.27,0.454-0.411,0.709c-0.098,0.176-0.193,0.355-0.284,0.525
			c-0.091,0.171-0.183,0.345-0.273,0.524c-0.152,0.304-0.299,0.617-0.436,0.919l-0.043,0.089c-0.066,0.137-0.131,0.275-0.187,0.4
			c-0.057,0.13-0.11,0.266-0.196,0.48c-0.132,0.327-0.262,0.656-0.387,0.993l-0.053,0.136c-0.056,0.144-0.111,0.288-0.171,0.461
			c-0.048,0.136-0.091,0.275-0.135,0.415l-0.035,0.11c-0.098,0.299-0.191,0.598-0.285,0.912c-0.08,0.271-0.157,0.546-0.224,0.798
			c-0.059,0.22-0.113,0.441-0.17,0.673c-0.057,0.234-0.114,0.472-0.163,0.699c-0.071,0.325-0.135,0.658-0.21,1.068l-0.034,0.184
			c-0.036,0.183-0.071,0.364-0.104,0.56l-0.075,0.485c-0.064,0.424-0.112,0.861-0.159,1.302l-0.035,0.305
			c-0.023,0.186-0.046,0.373-0.063,0.561l-0.021,0.258c-0.068,0.877-0.107,1.707-0.117,2.535c-0.004,0.462,0.001,0.905,0.004,1.337
			c0,0.006,0.004,0.157,0.004,0.157l0.007,0.354c0.006,0.264,0.014,0.521,0.025,0.771l0.03,0.633c0.011,0.21,0.024,0.415,0.038,0.6
			l0.057,0.705c0.004,0.045,0.006,0.088,0.011,0.133l0.034,0.314c0.002,0.034,0.008,0.08,0.013,0.127
			c0.026,0.256,0.058,0.504,0.088,0.731l0.021,0.163c0.781,5.674,3.009,9.256,6.635,10.644c0.243,0.093,0.485,0.166,0.72,0.234
			c0.042,0.013,0.154,0.042,0.197,0.054c0.186,0.047,0.372,0.087,0.52,0.113l0.211,0.036c0.034,0.006,0.068,0.01,0.103,0.015
			c0.133,0.021,0.265,0.035,0.472,0.054c0.072,0.006,0.233,0.019,0.306,0.021l0.245,0.008c0.032,0.002,0.139,0.002,0.171,0.002
			c1.737,0,3.533-0.544,5.085-1.538c0.051-0.008,0.133-0.014,0.246-0.014c1.298,0,3.723,0.813,6.669,3.084
			c6.29,5.978,9.343,13.667,10.825,19.802c-0.089-0.024-0.176-0.049-0.264-0.072c-0.121-0.031-0.242-0.059-0.364-0.079
			c-2.354-0.582-4.803-0.875-7.284-0.875c-16.35,0-30.718,12.644-35.41,17.251c-12.232,0.127-22.505,7.058-30.536,20.602
			c-0.057,0.097-0.109,0.195-0.161,0.295c-9.656,19.081-11.035,43.144-3.639,61.239c6.847,16.757,10.027,26.544,10.765,40.229
			l0.019,0.392c0.046,0.9,0.081,1.815,0.106,2.772c0.796,29.758,22.564,42.464,31.453,42.784c4.188,0.151,7.578-1.308,9.961-2.854
			c4.73,4.166,14.092,11.004,26.251,12.889c2.383,0.369,4.683,0.557,6.839,0.557c12.529,0,18.17-6.313,20.593-8.995
			c0.173-0.191,0.331-0.367,0.468-0.514c0.289-0.309,0.892-0.948,3.429-0.948c1.8,0,4.225,0.36,7.303,1.013
			c2.788,0.592,5.268,0.844,7.566,0.844c10.313,0,15.42-5.503,21.887-12.472c1.089-1.173,2.245-2.42,3.508-3.73
			c0.046-0.048,0.091-0.096,0.133-0.145c9.847-11.352,11.684-24.833,13.044-38.919c0.066-0.688,0.162-1.368,0.26-2.044
			c0.069-0.483,0.149-0.961,0.231-1.449l0.1-0.62c0.091-0.513,0.191-1.017,0.296-1.542l0.099-0.504
			c0.108-0.519,0.226-1.033,0.347-1.554l0.101-0.448c0.126-0.531,0.261-1.056,0.399-1.585l0.1-0.39
			c0.145-0.548,0.3-1.089,0.456-1.627l0.085-0.302c0.169-0.579,0.346-1.153,0.516-1.689l0.065-0.212
			c0.197-0.622,0.402-1.239,0.608-1.852c1.66-4.877,3.688-9.628,5.651-14.221c4.714-11.037,9.55-22.451,9.408-35.92
			c-0.016-1.506-0.1-2.992-0.216-4.49C192.861,131.956,192.856,131.909,192.854,131.861z"/>
		<path style="fill:#A8A8A8;" d="M192.295,131.261c-0.004-0.05-0.014-0.196-0.018-0.247c-0.008-0.083-0.018-0.167-0.029-0.249
			c-1.76-18.4-12.414-31.639-28.763-35.985c-5.051-15.639-19.179-21.305-31.219-21.305c-1.217,0-2.439,0.058-3.594,0.169
			l-0.221,0.021c-0.473,0.049-0.938,0.104-1.381,0.167l-0.345,0.051c-0.4,0.061-0.794,0.127-1.184,0.199l-0.409,0.077
			c-0.367,0.075-0.727,0.154-1.093,0.241l-0.393,0.093c-0.368,0.093-0.727,0.192-1.152,0.316l-0.279,0.079
			c-0.462,0.145-0.911,0.294-1.34,0.453c-1.672,0.617-3.207,1.095-4.694,1.461l-0.472,0.115c-0.358,0.082-0.714,0.152-1.037,0.215
			l-0.42,0.084c-0.47,0.082-0.936,0.152-1.389,0.207l-0.259,0.024c-0.381,0.041-0.761,0.076-1.132,0.1l-0.501,0.021
			c-0.234,0.007-0.47,0.015-0.704,0.019c-0.527-7.427-2.273-17.543-7.096-32.409C94.157,17.386,83.166,10.385,75.42,7.62
			c-0.719-0.257-1.481-0.411-2.336-0.465c-0.249-0.037-0.504-0.047-0.761-0.054c-0.237,0.002-0.483,0.021-0.744,0.054
			c-0.181,0.016-0.358,0.031-0.529,0.056c-0.38,0.052-0.763,0.134-1.108,0.216c-0.051,0.013-0.103,0.023-0.153,0.034
			c-0.079,0.018-0.157,0.042-0.236,0.064c-0.097,0.027-0.199,0.058-0.322,0.096c-0.321,0.099-0.641,0.224-0.946,0.347
			c-0.085,0.034-0.171,0.069-0.255,0.106c-0.036,0.017-0.08,0.034-0.087,0.038c-0.139,0.057-0.277,0.118-0.399,0.178
			c-0.239,0.115-0.481,0.241-0.726,0.38c-0.031,0.017-0.063,0.034-0.093,0.053c-0.012,0.008-0.1,0.059-0.11,0.065
			c-0.135,0.076-0.268,0.156-0.4,0.235c-0.095,0.058-0.22,0.129-0.293,0.177c-0.144,0.094-0.287,0.193-0.492,0.341
			c-0.027,0.02-0.056,0.04-0.083,0.061c-0.851,0.625-1.668,1.322-2.398,2.048c-0.029,0.027-0.058,0.057-0.087,0.087
			c-0.418,0.431-0.84,0.911-1.265,1.429c-0.089,0.108-0.175,0.227-0.313,0.408c-0.134,0.177-0.271,0.353-0.375,0.492
			c-0.068,0.09-0.137,0.178-0.187,0.25c-0.118,0.167-0.237,0.34-0.341,0.494c-0.098,0.144-0.193,0.295-0.289,0.445l-0.16,0.252
			c-0.09,0.14-0.178,0.276-0.264,0.42c-0.134,0.225-0.268,0.454-0.41,0.709c-0.098,0.177-0.194,0.356-0.285,0.525
			c-0.092,0.171-0.181,0.345-0.271,0.525c-0.152,0.303-0.3,0.616-0.437,0.918l-0.043,0.089c-0.066,0.137-0.131,0.275-0.186,0.4
			c-0.057,0.13-0.109,0.266-0.197,0.481c-0.131,0.326-0.262,0.655-0.387,0.992l-0.054,0.136c-0.055,0.145-0.11,0.289-0.17,0.461
			c-0.048,0.137-0.091,0.275-0.135,0.415l-0.034,0.11c-0.098,0.299-0.192,0.598-0.285,0.912c-0.08,0.271-0.156,0.546-0.224,0.799
			c-0.058,0.219-0.113,0.441-0.17,0.672c-0.058,0.234-0.113,0.472-0.163,0.7c-0.071,0.324-0.135,0.657-0.211,1.067l-0.035,0.185
			c-0.035,0.183-0.069,0.365-0.102,0.559l-0.076,0.485c-0.063,0.424-0.111,0.862-0.159,1.302l-0.035,0.305
			c-0.022,0.186-0.045,0.373-0.061,0.561l-0.022,0.258c-0.069,0.877-0.108,1.707-0.117,2.535c-0.005,0.462,0,0.905,0.003,1.337
			c0,0.006,0.003,0.157,0.003,0.157l0.009,0.355c0.006,0.263,0.014,0.521,0.023,0.771l0.03,0.632c0.013,0.21,0.026,0.415,0.04,0.6
			l0.055,0.705c0.004,0.045,0.008,0.089,0.013,0.133l0.033,0.314c0.003,0.034,0.008,0.08,0.014,0.127
			c0.028,0.256,0.057,0.504,0.087,0.731l0.021,0.163c0.779,5.674,3.009,9.256,6.635,10.645c0.241,0.092,0.484,0.165,0.719,0.233
			c0.042,0.013,0.154,0.042,0.198,0.054c0.187,0.047,0.372,0.087,0.52,0.113l0.212,0.036c0.034,0.006,0.068,0.011,0.102,0.015
			c0.132,0.019,0.265,0.036,0.471,0.054c0.072,0.007,0.233,0.019,0.307,0.021l0.245,0.008c0.032,0.002,0.138,0.002,0.17,0.002
			c1.737,0,3.533-0.544,5.085-1.537c0.052-0.009,0.134-0.015,0.246-0.015c1.299,0,3.723,0.813,6.67,3.084
			c6.29,5.978,9.343,13.667,10.824,19.803c-0.088-0.025-0.176-0.05-0.264-0.073c-0.12-0.031-0.241-0.059-0.363-0.079
			c-2.354-0.581-4.803-0.875-7.285-0.875c-16.35,0-30.718,12.644-35.41,17.251c-12.233,0.127-22.504,7.058-30.535,20.602
			c-0.057,0.097-0.111,0.195-0.161,0.296c-9.606,19.105-11.035,43.144-3.641,61.238c6.848,16.757,10.028,26.544,10.765,40.229
			l0.021,0.392c0.045,0.9,0.079,1.815,0.105,2.773c0.811,29.757,22.564,42.464,31.453,42.784c4.189,0.15,7.578-1.309,9.962-2.854
			c4.73,4.166,14.092,11.004,26.25,12.889c2.384,0.369,4.684,0.557,6.839,0.557c12.53,0,18.174-6.31,20.594-8.995
			c0.171-0.19,0.329-0.367,0.468-0.514c0.289-0.309,0.891-0.948,3.427-0.948c1.801,0,4.226,0.36,7.304,1.014
			c2.788,0.591,5.268,0.843,7.566,0.843c10.313,0,15.421-5.503,21.887-12.472c1.089-1.172,2.24-2.425,3.509-3.73
			c0.046-0.047,0.09-0.095,0.133-0.145c9.909-11.297,11.683-24.832,13.043-38.919c0.066-0.689,0.163-1.368,0.261-2.044
			c0.068-0.483,0.149-0.961,0.23-1.448l0.101-0.621c0.09-0.513,0.19-1.017,0.296-1.542l0.099-0.504
			c0.106-0.519,0.225-1.033,0.346-1.554l0.1-0.448c0.126-0.531,0.261-1.056,0.4-1.585l0.1-0.39c0.145-0.547,0.299-1.088,0.454-1.627
			l0.086-0.302c0.17-0.579,0.347-1.152,0.515-1.689l0.066-0.212c0.198-0.622,0.402-1.239,0.609-1.852
			c1.659-4.877,3.688-9.628,5.65-14.221c4.715-11.037,9.55-22.451,9.409-35.92c-0.017-1.506-0.1-2.992-0.216-4.49
			C192.303,131.355,192.298,131.309,192.295,131.261z"/>
		<path style="fill:#9A9A9A;" d="M191.736,130.66c-0.004-0.049-0.014-0.195-0.019-0.247c-0.007-0.083-0.017-0.167-0.029-0.249
			c-1.759-18.4-12.414-31.639-28.762-35.985c-5.051-15.638-19.179-21.305-31.219-21.305c-1.218,0-2.439,0.058-3.594,0.169
			l-0.221,0.022c-0.473,0.049-0.938,0.104-1.382,0.166l-0.345,0.051c-0.399,0.06-0.794,0.127-1.183,0.199l-0.409,0.078
			c-0.368,0.075-0.727,0.153-1.094,0.24l-0.392,0.094c-0.369,0.093-0.727,0.191-1.153,0.315l-0.278,0.08
			c-0.462,0.144-0.911,0.293-1.34,0.452c-1.672,0.618-3.207,1.096-4.695,1.461l-0.472,0.115c-0.357,0.083-0.713,0.152-1.036,0.215
			l-0.421,0.084c-0.469,0.082-0.935,0.153-1.389,0.207l-0.258,0.024c-0.381,0.041-0.761,0.077-1.133,0.101l-0.501,0.019
			c-0.233,0.008-0.469,0.016-0.703,0.02c-0.528-7.428-2.273-17.543-7.097-32.41C93.599,16.785,82.607,9.784,74.861,7.02
			c-0.719-0.257-1.481-0.41-2.337-0.465c-0.248-0.037-0.503-0.047-0.761-0.054c-0.236,0.002-0.482,0.023-0.743,0.054
			c-0.181,0.016-0.359,0.032-0.529,0.057c-0.38,0.052-0.763,0.133-1.108,0.215c-0.052,0.013-0.103,0.023-0.153,0.035
			c-0.079,0.018-0.156,0.042-0.236,0.065c-0.096,0.027-0.2,0.056-0.323,0.094c-0.321,0.099-0.641,0.223-0.946,0.347
			c-0.084,0.034-0.169,0.07-0.255,0.108c-0.036,0.017-0.079,0.035-0.086,0.037c-0.142,0.05-0.277,0.118-0.399,0.178
			c-0.24,0.115-0.479,0.245-0.726,0.381c-0.031,0.017-0.063,0.034-0.093,0.053c-0.012,0.007-0.1,0.058-0.11,0.064
			c-0.136,0.077-0.268,0.158-0.4,0.235c-0.095,0.057-0.22,0.13-0.293,0.178c-0.143,0.094-0.287,0.192-0.492,0.34
			c-0.027,0.019-0.057,0.04-0.084,0.061c-0.851,0.625-1.667,1.322-2.397,2.048c-0.028,0.027-0.057,0.057-0.086,0.087
			c-0.418,0.431-0.842,0.909-1.265,1.429c-0.089,0.109-0.175,0.227-0.314,0.408c-0.135,0.177-0.271,0.353-0.375,0.492
			c-0.068,0.09-0.137,0.179-0.186,0.25c-0.119,0.167-0.238,0.34-0.341,0.494c-0.098,0.145-0.193,0.295-0.289,0.446l-0.16,0.253
			c-0.09,0.138-0.179,0.275-0.264,0.418c-0.136,0.226-0.268,0.456-0.41,0.709c-0.099,0.176-0.195,0.355-0.285,0.525
			c-0.092,0.171-0.181,0.345-0.271,0.525c-0.152,0.303-0.301,0.616-0.437,0.918l-0.043,0.089c-0.066,0.138-0.131,0.275-0.186,0.4
			c-0.057,0.13-0.11,0.267-0.197,0.482c-0.132,0.326-0.263,0.655-0.388,0.993l-0.053,0.136c-0.055,0.145-0.111,0.288-0.171,0.461
			c-0.047,0.136-0.091,0.274-0.134,0.415L56.5,21.089c-0.098,0.299-0.192,0.599-0.285,0.913c-0.081,0.271-0.156,0.545-0.224,0.798
			c-0.058,0.219-0.114,0.44-0.171,0.672c-0.057,0.234-0.112,0.472-0.163,0.7c-0.07,0.324-0.134,0.657-0.21,1.068l-0.035,0.184
			c-0.036,0.183-0.07,0.365-0.103,0.559l-0.075,0.485c-0.063,0.424-0.112,0.863-0.159,1.302l-0.035,0.306
			c-0.022,0.186-0.046,0.373-0.062,0.56l-0.021,0.258c-0.069,0.877-0.108,1.707-0.118,2.535c-0.005,0.462-0.003,0.905,0.004,1.337
			c0,0.006,0.003,0.157,0.003,0.157l0.009,0.355c0.006,0.263,0.013,0.521,0.023,0.771l0.03,0.632c0.013,0.212,0.025,0.415,0.04,0.6
			l0.055,0.705c0.004,0.045,0.008,0.089,0.013,0.133l0.033,0.316c0.003,0.032,0.007,0.079,0.013,0.125
			c0.029,0.257,0.057,0.505,0.087,0.731l0.022,0.165c0.779,5.673,3.009,9.254,6.635,10.643c0.241,0.092,0.482,0.17,0.719,0.235
			c0.042,0.012,0.154,0.041,0.198,0.052c0.188,0.043,0.372,0.087,0.52,0.113l0.211,0.036c0.034,0.006,0.068,0.011,0.103,0.015
			c0.133,0.02,0.266,0.034,0.471,0.054c0.073,0.007,0.234,0.019,0.308,0.022l0.245,0.007c0.032,0.001,0.137,0.002,0.169,0.002
			c1.737,0,3.534-0.544,5.085-1.538c0.053-0.008,0.134-0.015,0.247-0.015c1.299,0,3.723,0.814,6.669,3.086
			c6.29,5.976,9.344,13.665,10.825,19.801c-0.089-0.025-0.176-0.05-0.264-0.073c-0.12-0.031-0.241-0.058-0.364-0.078
			c-2.354-0.581-4.802-0.875-7.284-0.875c-16.35,0-30.718,12.643-35.41,17.25c-12.233,0.128-22.505,7.058-30.535,20.603
			c-0.058,0.097-0.111,0.194-0.161,0.295c-9.606,19.106-11.036,43.144-3.641,61.238c6.848,16.757,10.027,26.544,10.765,40.229
			l0.02,0.392c0.045,0.9,0.079,1.815,0.105,2.773c0.81,29.758,22.564,42.464,31.453,42.784c4.188,0.15,7.578-1.308,9.962-2.854
			c4.73,4.165,14.091,11.003,26.25,12.889c2.384,0.368,4.684,0.556,6.839,0.556c12.53,0,18.181-6.303,20.593-8.994
			c0.173-0.191,0.33-0.368,0.469-0.515c0.288-0.309,0.89-0.948,3.427-0.948c1.801,0,4.225,0.36,7.304,1.014
			c2.787,0.591,5.268,0.844,7.566,0.844c10.314,0,15.421-5.504,21.887-12.472c1.088-1.172,2.233-2.433,3.509-3.731
			c0.045-0.046,0.09-0.095,0.133-0.144c9.984-11.23,11.683-24.833,13.043-38.92c0.066-0.689,0.162-1.368,0.26-2.044
			c0.069-0.483,0.15-0.961,0.231-1.448l0.101-0.621c0.09-0.512,0.191-1.017,0.295-1.541l0.099-0.505
			c0.107-0.518,0.225-1.033,0.346-1.554l0.102-0.448c0.126-0.531,0.261-1.056,0.4-1.585l0.1-0.39c0.146-0.547,0.3-1.088,0.455-1.627
			l0.085-0.302c0.171-0.579,0.347-1.152,0.516-1.688l0.066-0.213c0.198-0.622,0.402-1.239,0.609-1.851
			c1.659-4.878,3.688-9.628,5.65-14.222c4.714-11.037,9.55-22.451,9.409-35.92c-0.017-1.506-0.102-2.991-0.217-4.489
			C191.744,130.755,191.739,130.708,191.736,130.66z"/>
		<path style="fill:#8B8B8B;" d="M191.177,130.061c-0.003-0.05-0.013-0.196-0.018-0.247c-0.008-0.083-0.017-0.167-0.029-0.25
			c-1.759-18.399-12.414-31.638-28.762-35.985c-5.051-15.637-19.18-21.304-31.219-21.304c-1.218,0-2.439,0.058-3.595,0.169
			l-0.221,0.022c-0.473,0.048-0.938,0.103-1.381,0.165l-0.345,0.052c-0.399,0.06-0.794,0.127-1.183,0.198l-0.41,0.079
			c-0.367,0.074-0.727,0.152-1.093,0.239l-0.392,0.095c-0.369,0.093-0.726,0.191-1.153,0.314l-0.278,0.081
			c-0.463,0.144-0.911,0.293-1.341,0.452c-1.672,0.618-3.206,1.096-4.694,1.461l-0.472,0.114c-0.358,0.083-0.714,0.153-1.036,0.216
			l-0.421,0.084c-0.469,0.081-0.935,0.153-1.389,0.206l-0.259,0.025c-0.381,0.041-0.761,0.077-1.132,0.1l-0.501,0.02
			c-0.234,0.009-0.469,0.017-0.704,0.021c-0.527-7.428-2.273-17.544-7.096-32.41C93.039,16.186,82.049,9.185,74.303,6.42
			c-0.719-0.257-1.481-0.41-2.337-0.465c-0.248-0.037-0.503-0.048-0.761-0.054c-0.237,0.002-0.483,0.022-0.743,0.054
			c-0.182,0.015-0.359,0.032-0.53,0.057c-0.38,0.053-0.762,0.135-1.108,0.215c-0.051,0.012-0.101,0.023-0.153,0.035
			c-0.078,0.019-0.157,0.041-0.235,0.064c-0.096,0.028-0.2,0.056-0.323,0.095c-0.32,0.101-0.642,0.223-0.946,0.347
			c-0.084,0.034-0.17,0.07-0.255,0.107c-0.036,0.017-0.079,0.034-0.086,0.037c-0.14,0.058-0.277,0.117-0.4,0.178
			c-0.238,0.116-0.479,0.245-0.726,0.381c-0.031,0.017-0.061,0.035-0.093,0.053c-0.011,0.007-0.1,0.058-0.109,0.064
			c-0.136,0.077-0.269,0.156-0.401,0.234C65,7.88,64.875,7.953,64.803,8.001c-0.143,0.093-0.289,0.189-0.493,0.339
			C64.282,8.36,64.254,8.38,64.227,8.4c-0.851,0.625-1.674,1.316-2.397,2.048c-0.028,0.028-0.057,0.057-0.086,0.087
			c-0.418,0.431-0.843,0.91-1.265,1.429c-0.089,0.11-0.176,0.229-0.313,0.409c-0.135,0.177-0.271,0.352-0.375,0.491
			c-0.068,0.09-0.137,0.18-0.188,0.25c-0.119,0.168-0.237,0.341-0.341,0.495c-0.098,0.144-0.193,0.295-0.289,0.446l-0.16,0.252
			c-0.09,0.139-0.178,0.276-0.263,0.419c-0.136,0.226-0.269,0.455-0.41,0.709c-0.099,0.176-0.195,0.355-0.285,0.525
			c-0.092,0.171-0.181,0.344-0.272,0.525c-0.152,0.303-0.3,0.616-0.437,0.917l-0.042,0.089c-0.066,0.139-0.131,0.276-0.187,0.401
			c-0.057,0.13-0.109,0.267-0.196,0.481c-0.131,0.325-0.263,0.655-0.388,0.993l-0.053,0.136c-0.056,0.145-0.111,0.288-0.171,0.461
			c-0.046,0.135-0.091,0.274-0.135,0.415l-0.034,0.109c-0.097,0.298-0.191,0.599-0.285,0.913c-0.08,0.272-0.156,0.544-0.223,0.798
			c-0.059,0.219-0.115,0.44-0.171,0.671c-0.058,0.235-0.113,0.472-0.163,0.701c-0.071,0.324-0.135,0.657-0.21,1.068l-0.035,0.184
			c-0.036,0.183-0.07,0.365-0.103,0.559l-0.076,0.484c-0.063,0.425-0.111,0.863-0.158,1.303l-0.035,0.306
			c-0.023,0.186-0.046,0.373-0.062,0.559l-0.022,0.259C54.328,29.171,54.29,30,54.28,30.828c-0.005,0.462-0.003,0.906,0.004,1.337
			c0,0.007,0.003,0.158,0.003,0.158l0.009,0.355c0.005,0.263,0.013,0.521,0.023,0.771l0.03,0.631
			c0.012,0.212,0.025,0.415,0.04,0.601l0.055,0.705c0.004,0.045,0.008,0.089,0.012,0.132l0.033,0.316
			c0.003,0.032,0.009,0.08,0.014,0.125c0.029,0.258,0.057,0.506,0.087,0.732l0.022,0.164c0.779,5.674,3.008,9.255,6.634,10.644
			c0.242,0.092,0.482,0.169,0.72,0.234c0.041,0.012,0.154,0.042,0.197,0.053c0.187,0.045,0.373,0.086,0.521,0.112l0.211,0.036
			c0.034,0.006,0.068,0.012,0.103,0.016c0.133,0.02,0.266,0.032,0.471,0.053c0.073,0.008,0.234,0.019,0.307,0.023l0.246,0.008
			c0.032,0.001,0.137,0.002,0.169,0.002c1.737,0,3.533-0.544,5.085-1.538c0.052-0.008,0.134-0.016,0.246-0.016
			c1.299,0,3.723,0.814,6.67,3.086c6.29,5.976,9.343,13.665,10.824,19.802c-0.088-0.026-0.175-0.051-0.263-0.074
			c-0.121-0.03-0.242-0.057-0.364-0.077c-2.354-0.582-4.803-0.875-7.284-0.875c-16.35,0-30.718,12.642-35.411,17.249
			c-12.233,0.129-22.504,7.059-30.535,20.604c-0.057,0.097-0.11,0.193-0.161,0.295c-9.549,19.135-11.035,43.143-3.64,61.237
			c6.848,16.757,10.027,26.544,10.765,40.229l0.02,0.392c0.046,0.9,0.08,1.815,0.106,2.773c0.81,29.757,22.564,42.465,31.453,42.784
			c4.188,0.15,7.578-1.308,9.961-2.854c4.731,4.165,14.092,11.003,26.251,12.889c2.383,0.368,4.684,0.556,6.838,0.556
			c12.53,0,18.182-6.304,20.594-8.994c0.173-0.191,0.33-0.368,0.468-0.515c0.289-0.309,0.891-0.949,3.428-0.949
			c1.801,0,4.225,0.36,7.303,1.015c2.788,0.592,5.269,0.844,7.567,0.844c10.313,0,15.42-5.504,21.887-12.472
			c1.088-1.173,2.24-2.426,3.509-3.731c0.045-0.047,0.09-0.096,0.132-0.144c10.02-11.2,11.683-24.833,13.043-38.921
			c0.066-0.689,0.163-1.367,0.261-2.044c0.069-0.482,0.149-0.961,0.231-1.447l0.101-0.621c0.09-0.512,0.189-1.018,0.295-1.541
			l0.099-0.505c0.107-0.519,0.225-1.033,0.346-1.555l0.102-0.447c0.126-0.532,0.261-1.056,0.398-1.585l0.101-0.39
			c0.145-0.547,0.3-1.088,0.455-1.627l0.085-0.303c0.171-0.578,0.347-1.151,0.516-1.688l0.066-0.213
			c0.197-0.623,0.402-1.239,0.608-1.851c1.66-4.879,3.688-9.628,5.65-14.222c4.715-11.038,9.551-22.451,9.409-35.921
			c-0.016-1.505-0.102-2.99-0.216-4.488C191.184,130.154,191.18,130.107,191.177,130.061z"/>
		<path style="fill:#7D7D7D;" d="M190.618,129.46c-0.004-0.05-0.013-0.196-0.018-0.247c-0.008-0.083-0.018-0.167-0.029-0.249
			c-1.76-18.4-12.414-31.639-28.762-35.985c-5.051-15.638-19.18-21.305-31.22-21.305c-1.217,0-2.438,0.058-3.594,0.169l-0.221,0.023
			c-0.473,0.048-0.938,0.104-1.381,0.167l-0.345,0.05c-0.4,0.061-0.794,0.127-1.184,0.2l-0.409,0.077
			c-0.367,0.074-0.728,0.153-1.093,0.24l-0.392,0.094c-0.368,0.093-0.727,0.191-1.152,0.315l-0.278,0.08
			c-0.463,0.144-0.912,0.293-1.341,0.452c-1.672,0.618-3.206,1.096-4.694,1.461l-0.472,0.115c-0.358,0.083-0.714,0.152-1.037,0.215
			l-0.42,0.084c-0.469,0.082-0.936,0.153-1.389,0.207l-0.259,0.024c-0.381,0.041-0.761,0.077-1.132,0.1l-0.501,0.021
			c-0.234,0.008-0.47,0.016-0.704,0.02c-0.527-7.428-2.273-17.543-7.096-32.41C92.48,15.586,81.489,8.584,73.744,5.819
			c-0.72-0.257-1.481-0.41-2.337-0.465c-0.249-0.037-0.503-0.047-0.761-0.054c-0.237,0.002-0.483,0.023-0.744,0.055
			c-0.181,0.015-0.358,0.031-0.529,0.056c-0.38,0.052-0.764,0.134-1.108,0.215c-0.052,0.013-0.103,0.023-0.153,0.035
			c-0.079,0.018-0.157,0.041-0.236,0.064c-0.096,0.027-0.199,0.057-0.322,0.095c-0.321,0.099-0.642,0.223-0.946,0.347
			c-0.085,0.034-0.17,0.07-0.255,0.108c-0.036,0.017-0.08,0.034-0.087,0.037c-0.139,0.058-0.277,0.118-0.399,0.178
			c-0.239,0.115-0.479,0.247-0.726,0.381c-0.032,0.017-0.063,0.034-0.093,0.053c-0.012,0.007-0.1,0.058-0.109,0.064
			c-0.136,0.077-0.269,0.157-0.401,0.235c-0.095,0.057-0.221,0.13-0.293,0.178c-0.143,0.094-0.285,0.195-0.492,0.341
			c-0.027,0.018-0.056,0.039-0.083,0.059c-0.85,0.625-1.667,1.322-2.397,2.048c-0.028,0.027-0.058,0.057-0.087,0.087
			c-0.417,0.432-0.842,0.909-1.266,1.429c-0.088,0.109-0.174,0.227-0.313,0.408c-0.134,0.177-0.271,0.354-0.375,0.492
			c-0.068,0.09-0.136,0.179-0.188,0.25c-0.119,0.166-0.236,0.34-0.34,0.494c-0.098,0.145-0.193,0.295-0.289,0.446l-0.16,0.252
			c-0.09,0.139-0.178,0.276-0.264,0.419c-0.135,0.226-0.268,0.455-0.41,0.709c-0.098,0.177-0.194,0.356-0.284,0.525
			c-0.093,0.171-0.182,0.345-0.272,0.525c-0.152,0.303-0.3,0.616-0.437,0.918l-0.043,0.089c-0.066,0.138-0.131,0.275-0.186,0.4
			c-0.057,0.13-0.109,0.267-0.197,0.482c-0.131,0.326-0.262,0.655-0.387,0.993l-0.054,0.136c-0.055,0.144-0.11,0.288-0.17,0.461
			c-0.048,0.136-0.092,0.274-0.135,0.415l-0.034,0.109c-0.098,0.299-0.192,0.599-0.285,0.913c-0.08,0.271-0.156,0.545-0.224,0.798
			c-0.058,0.219-0.113,0.44-0.17,0.672c-0.058,0.234-0.113,0.472-0.163,0.7c-0.071,0.324-0.135,0.657-0.211,1.068l-0.034,0.184
			c-0.036,0.183-0.07,0.365-0.102,0.559l-0.076,0.485c-0.063,0.424-0.111,0.863-0.159,1.302l-0.035,0.306
			c-0.022,0.186-0.045,0.373-0.062,0.56l-0.021,0.258c-0.069,0.877-0.108,1.707-0.117,2.535c-0.005,0.462-0.003,0.905,0.004,1.337
			c0,0.006,0.002,0.157,0.002,0.157l0.009,0.356c0.006,0.263,0.014,0.521,0.023,0.771l0.031,0.632
			c0.012,0.211,0.025,0.415,0.039,0.6l0.056,0.705c0.003,0.045,0.007,0.089,0.012,0.133l0.033,0.315
			c0.003,0.033,0.008,0.08,0.014,0.126c0.031,0.256,0.056,0.505,0.087,0.731l0.021,0.164c0.78,5.674,3.009,9.255,6.635,10.644
			c0.241,0.092,0.482,0.167,0.719,0.234c0.042,0.013,0.154,0.042,0.198,0.053c0.187,0.045,0.372,0.088,0.521,0.113l0.211,0.037
			c0.034,0.005,0.068,0.01,0.103,0.014c0.132,0.02,0.265,0.034,0.471,0.054c0.072,0.007,0.233,0.019,0.307,0.021l0.245,0.008
			c0.032,0.001,0.138,0.002,0.17,0.002c1.737,0,3.533-0.544,5.085-1.538c0.052-0.008,0.134-0.015,0.246-0.015
			c1.299,0,3.723,0.813,6.67,3.085c6.29,5.977,9.343,13.666,10.824,19.802c-0.088-0.025-0.175-0.049-0.264-0.072
			c-0.12-0.031-0.241-0.059-0.363-0.079c-2.354-0.582-4.803-0.875-7.284-0.875c-16.351,0-30.719,12.643-35.411,17.251
			C30.9,85.121,20.63,92.051,12.599,105.596c-0.057,0.097-0.11,0.194-0.161,0.295c-9.513,19.153-11.035,43.145-3.641,61.238
			c6.849,16.757,10.028,26.545,10.766,40.229l0.02,0.392c0.045,0.9,0.079,1.815,0.106,2.773
			c0.81,29.757,22.563,42.464,31.452,42.784c4.189,0.15,7.578-1.308,9.962-2.854c4.73,4.165,14.092,11.003,26.251,12.889
			c2.383,0.368,4.683,0.556,6.838,0.556c12.53,0,18.181-6.303,20.594-8.994c0.171-0.191,0.329-0.368,0.468-0.515
			c0.289-0.309,0.891-0.948,3.427-0.948c1.801,0,4.225,0.36,7.304,1.014c2.788,0.591,5.268,0.844,7.567,0.844
			c10.313,0,15.42-5.504,21.886-12.472c1.089-1.173,2.24-2.426,3.509-3.731c0.046-0.047,0.09-0.094,0.133-0.144
			c9.909-11.297,11.673-24.834,13.042-38.92c0.067-0.688,0.164-1.368,0.262-2.043c0.069-0.484,0.149-0.962,0.23-1.449l0.101-0.621
			c0.09-0.512,0.19-1.017,0.296-1.541l0.099-0.505c0.106-0.518,0.225-1.033,0.346-1.553l0.102-0.449
			c0.126-0.53,0.26-1.056,0.398-1.585l0.101-0.39c0.145-0.547,0.299-1.088,0.454-1.627l0.086-0.302
			c0.17-0.578,0.347-1.152,0.515-1.688l0.066-0.213c0.198-0.622,0.403-1.239,0.609-1.851c1.659-4.878,3.688-9.628,5.65-14.222
			c4.715-11.037,9.551-22.451,9.409-35.92c-0.016-1.506-0.102-2.991-0.216-4.489C190.626,129.555,190.621,129.509,190.618,129.46z"
			/>
		<path style="fill:#6E6E6E;" d="M190.059,128.86c-0.004-0.05-0.014-0.196-0.018-0.247c-0.007-0.083-0.017-0.167-0.029-0.249
			c-1.759-18.4-12.413-31.639-28.762-35.986c-5.051-15.637-19.179-21.304-31.219-21.304c-1.217,0-2.439,0.057-3.594,0.169
			l-0.221,0.021c-0.473,0.049-0.938,0.104-1.381,0.166l-0.346,0.052c-0.399,0.061-0.793,0.126-1.183,0.198l-0.409,0.079
			c-0.367,0.074-0.727,0.152-1.094,0.24l-0.392,0.094c-0.368,0.093-0.727,0.191-1.153,0.315l-0.278,0.08
			c-0.462,0.143-0.911,0.293-1.34,0.452c-1.672,0.617-3.208,1.095-4.695,1.46l-0.472,0.115c-0.357,0.083-0.713,0.153-1.036,0.216
			l-0.421,0.084c-0.469,0.082-0.935,0.153-1.389,0.207l-0.259,0.023c-0.38,0.041-0.76,0.078-1.132,0.101l-0.501,0.021
			c-0.233,0.007-0.469,0.015-0.703,0.02c-0.528-7.428-2.274-17.543-7.097-32.411C91.923,14.984,80.931,7.983,73.185,5.22
			c-0.719-0.258-1.481-0.411-2.337-0.466c-0.248-0.036-0.503-0.046-0.762-0.053c-0.235,0.001-0.481,0.022-0.742,0.054
			c-0.181,0.016-0.359,0.032-0.529,0.057c-0.38,0.053-0.763,0.133-1.108,0.214c-0.052,0.013-0.103,0.023-0.153,0.036
			c-0.079,0.018-0.156,0.041-0.236,0.064c-0.096,0.027-0.2,0.056-0.323,0.095c-0.319,0.101-0.641,0.222-0.946,0.346
			c-0.084,0.034-0.171,0.07-0.255,0.108c-0.035,0.017-0.079,0.035-0.086,0.038c-0.139,0.059-0.277,0.117-0.399,0.178
			c-0.239,0.116-0.479,0.248-0.726,0.381c-0.031,0.017-0.062,0.035-0.093,0.053c-0.012,0.006-0.1,0.057-0.11,0.064
			c-0.136,0.076-0.268,0.156-0.4,0.234c-0.096,0.058-0.22,0.13-0.293,0.178c-0.144,0.093-0.289,0.191-0.492,0.34
			c-0.027,0.021-0.056,0.041-0.084,0.062c-0.851,0.625-1.667,1.321-2.397,2.047c-0.028,0.027-0.057,0.058-0.086,0.088
			c-0.418,0.43-0.839,0.912-1.265,1.429c-0.089,0.109-0.175,0.227-0.313,0.407c-0.135,0.177-0.271,0.354-0.375,0.492
			c-0.068,0.091-0.137,0.179-0.187,0.25c-0.119,0.167-0.238,0.341-0.341,0.495c-0.098,0.145-0.193,0.295-0.289,0.446l-0.16,0.252
			c-0.09,0.139-0.179,0.275-0.264,0.419c-0.136,0.226-0.268,0.455-0.41,0.709c-0.099,0.177-0.195,0.354-0.285,0.524
			c-0.092,0.172-0.181,0.345-0.271,0.526c-0.152,0.303-0.301,0.616-0.437,0.918l-0.043,0.088c-0.066,0.139-0.131,0.276-0.185,0.401
			c-0.057,0.129-0.11,0.266-0.197,0.481c-0.132,0.326-0.263,0.656-0.388,0.993l-0.053,0.136c-0.055,0.145-0.11,0.288-0.171,0.462
			c-0.046,0.136-0.091,0.274-0.134,0.414l-0.034,0.11c-0.098,0.299-0.191,0.598-0.285,0.913c-0.08,0.271-0.156,0.545-0.224,0.797
			c-0.058,0.219-0.113,0.44-0.171,0.673c-0.057,0.233-0.112,0.472-0.163,0.7c-0.07,0.324-0.134,0.657-0.21,1.067l-0.035,0.185
			c-0.036,0.183-0.07,0.364-0.102,0.559l-0.075,0.484c-0.063,0.425-0.112,0.863-0.159,1.302l-0.035,0.307
			c-0.022,0.185-0.046,0.372-0.062,0.559l-0.021,0.259c-0.069,0.876-0.108,1.707-0.118,2.534c-0.004,0.463,0,0.905,0.004,1.338
			l0.003,0.162l0.009,0.351c0.006,0.263,0.014,0.521,0.023,0.771l0.03,0.631c0.013,0.212,0.025,0.415,0.04,0.601l0.055,0.705
			c0.004,0.045,0.008,0.088,0.013,0.132l0.033,0.316c0.003,0.033,0.008,0.079,0.013,0.126c0.028,0.256,0.058,0.504,0.088,0.731
			l0.021,0.164c0.779,5.673,3.009,9.255,6.635,10.643c0.241,0.093,0.482,0.168,0.719,0.235c0.042,0.013,0.154,0.042,0.198,0.053
			c0.187,0.045,0.371,0.086,0.52,0.113l0.212,0.035c0.034,0.007,0.067,0.012,0.102,0.016c0.133,0.021,0.266,0.036,0.471,0.054
			c0.073,0.007,0.234,0.018,0.308,0.021l0.245,0.007c0.032,0.002,0.138,0.003,0.17,0.003c1.737,0,3.533-0.545,5.085-1.538
			c0.052-0.009,0.133-0.015,0.246-0.015c1.299,0,3.723,0.813,6.67,3.085c6.289,5.976,9.343,13.665,10.824,19.801
			c-0.089-0.024-0.176-0.05-0.265-0.073c-0.119-0.031-0.24-0.057-0.362-0.077c-2.354-0.582-4.803-0.875-7.286-0.875
			c-16.349,0-30.718,12.643-35.409,17.249c-12.233,0.128-22.557,7.026-30.535,20.603c-0.057,0.098-0.111,0.195-0.161,0.296
			c-9.606,19.105-11.036,43.142-3.641,61.238c6.848,16.757,10.028,26.543,10.765,40.228l0.021,0.393
			c0.045,0.899,0.079,1.814,0.106,2.772c0.81,29.758,22.564,42.464,31.453,42.784c4.188,0.151,7.578-1.307,9.962-2.854
			c4.73,4.166,14.091,11.003,26.25,12.889c2.384,0.369,4.684,0.557,6.839,0.557c12.53,0,18.17-6.313,20.593-8.995
			c0.172-0.191,0.33-0.367,0.469-0.514c0.289-0.31,0.89-0.948,3.427-0.948c1.801,0,4.225,0.358,7.304,1.013
			c2.788,0.592,5.268,0.844,7.566,0.844c10.314,0,15.421-5.503,21.887-12.472c1.089-1.172,2.233-2.432,3.509-3.731
			c0.046-0.046,0.09-0.095,0.133-0.143c9.985-11.23,11.683-24.833,13.043-38.921c0.066-0.688,0.163-1.367,0.26-2.044
			c0.069-0.482,0.15-0.96,0.231-1.448l0.101-0.62c0.09-0.513,0.19-1.017,0.296-1.541l0.098-0.506
			c0.107-0.518,0.225-1.032,0.346-1.554l0.102-0.447c0.126-0.532,0.261-1.056,0.399-1.585l0.1-0.39
			c0.146-0.548,0.3-1.089,0.455-1.628l0.085-0.302c0.171-0.578,0.347-1.151,0.516-1.689l0.066-0.212
			c0.198-0.623,0.402-1.239,0.609-1.852c1.659-4.878,3.688-9.628,5.65-14.221c4.714-11.038,9.55-22.451,9.409-35.921
			c-0.017-1.505-0.1-2.991-0.216-4.489C190.067,128.955,190.063,128.907,190.059,128.86z"/>
		<path style="fill:#606060;" d="M189.501,128.26c-0.003-0.05-0.014-0.196-0.018-0.247c-0.008-0.083-0.017-0.167-0.029-0.249
			c-1.759-18.4-12.414-31.639-28.762-35.985c-5.051-15.638-19.18-21.305-31.219-21.305c-1.218,0-2.439,0.058-3.595,0.169
			l-0.221,0.022c-0.473,0.048-0.938,0.104-1.381,0.166l-0.345,0.051c-0.399,0.061-0.794,0.127-1.183,0.199l-0.409,0.078
			c-0.368,0.074-0.727,0.153-1.094,0.24l-0.392,0.094c-0.369,0.093-0.727,0.191-1.153,0.315l-0.278,0.08
			c-0.462,0.144-0.911,0.293-1.341,0.452c-1.672,0.618-3.206,1.096-4.694,1.461l-0.472,0.115c-0.358,0.083-0.713,0.152-1.036,0.215
			l-0.421,0.084c-0.469,0.082-0.935,0.153-1.389,0.207l-0.259,0.024c-0.381,0.041-0.761,0.077-1.132,0.1l-0.501,0.021
			c-0.234,0.008-0.469,0.016-0.704,0.02c-0.527-7.428-2.105-17.599-7.096-32.41C91.678,14.285,80.372,7.384,72.626,4.619
			c-0.719-0.257-1.481-0.41-2.337-0.465c-0.248-0.037-0.503-0.047-0.761-0.054c-0.236,0.002-0.483,0.023-0.743,0.055
			c-0.182,0.015-0.359,0.031-0.53,0.056c-0.38,0.052-0.763,0.128-1.107,0.215c-0.052,0.012-0.103,0.023-0.154,0.035
			c-0.078,0.018-0.157,0.041-0.235,0.064c-0.097,0.026-0.2,0.058-0.323,0.095c-0.32,0.102-0.642,0.222-0.946,0.347
			c-0.084,0.034-0.17,0.071-0.255,0.107c-0.036,0.017-0.079,0.034-0.086,0.037c-0.14,0.058-0.277,0.117-0.399,0.178
			c-0.24,0.114-0.48,0.244-0.727,0.381c-0.031,0.017-0.063,0.034-0.093,0.053c-0.011,0.007-0.099,0.058-0.109,0.064
			c-0.136,0.077-0.27,0.155-0.4,0.235c-0.096,0.056-0.22,0.13-0.293,0.178c-0.144,0.094-0.286,0.193-0.493,0.34
			c-0.027,0.019-0.056,0.04-0.083,0.06c-0.86,0.612-1.678,1.313-2.397,2.048c-0.028,0.027-0.057,0.057-0.086,0.087
			c-0.418,0.431-0.843,0.909-1.265,1.429c-0.089,0.109-0.178,0.226-0.313,0.408c-0.137,0.175-0.273,0.352-0.375,0.492
			c-0.069,0.089-0.137,0.179-0.187,0.25c-0.12,0.167-0.238,0.34-0.342,0.494c-0.098,0.145-0.193,0.295-0.289,0.446l-0.159,0.252
			c-0.091,0.139-0.179,0.276-0.264,0.419c-0.136,0.226-0.268,0.456-0.41,0.709c-0.098,0.177-0.195,0.356-0.285,0.525
			c-0.092,0.171-0.181,0.345-0.271,0.525c-0.153,0.303-0.301,0.616-0.438,0.918l-0.042,0.089c-0.066,0.138-0.131,0.275-0.186,0.4
			c-0.058,0.13-0.112,0.266-0.197,0.482c-0.134,0.325-0.263,0.655-0.388,0.993l-0.053,0.136c-0.055,0.145-0.11,0.288-0.171,0.461
			c-0.046,0.136-0.091,0.274-0.135,0.415l-0.033,0.109c-0.098,0.299-0.191,0.599-0.285,0.913c-0.08,0.271-0.157,0.545-0.224,0.798
			c-0.059,0.219-0.114,0.44-0.171,0.672c-0.057,0.234-0.112,0.472-0.163,0.7c-0.071,0.324-0.135,0.657-0.21,1.068l-0.035,0.184
			c-0.036,0.183-0.07,0.365-0.103,0.56l-0.075,0.485c-0.063,0.424-0.112,0.863-0.159,1.302l-0.035,0.306
			c-0.023,0.186-0.046,0.373-0.062,0.56l-0.022,0.258c-0.068,0.877-0.107,1.707-0.117,2.535c-0.005,0.462-0.003,0.905,0.004,1.337
			l0.003,0.163l0.009,0.35c0.005,0.263,0.013,0.521,0.023,0.771l0.03,0.632c0.013,0.211,0.025,0.415,0.04,0.6l0.055,0.705
			c0.004,0.045,0.008,0.089,0.013,0.133l0.032,0.315c0.003,0.033,0.008,0.08,0.014,0.126c0.026,0.257,0.057,0.505,0.087,0.731
			l0.022,0.164c0.779,5.674,3.008,9.255,6.634,10.644c0.242,0.092,0.482,0.169,0.72,0.234c0.041,0.013,0.154,0.042,0.197,0.053
			c0.188,0.046,0.373,0.087,0.521,0.113l0.211,0.036c0.034,0.006,0.068,0.011,0.103,0.015c0.133,0.02,0.266,0.034,0.471,0.054
			c0.073,0.007,0.234,0.019,0.307,0.021l0.246,0.008c0.032,0.001,0.137,0.002,0.169,0.002c1.737,0,3.533-0.544,5.085-1.538
			c0.053-0.008,0.134-0.015,0.246-0.015c1.299,0,3.724,0.813,6.67,3.085c6.29,5.977,9.343,13.666,10.824,19.802
			c-0.088-0.025-0.175-0.05-0.263-0.073c-0.12-0.031-0.242-0.058-0.364-0.078c-2.354-0.582-4.803-0.875-7.284-0.875
			c-16.35,0-30.718,12.643-35.411,17.25c-12.232,0.128-22.504,7.058-30.535,20.603c-0.057,0.097-0.11,0.194-0.16,0.295
			c-9.607,19.106-11.036,43.144-3.641,61.238c6.848,16.757,10.027,26.544,10.765,40.229l0.02,0.392
			c0.046,0.9,0.083,1.815,0.106,2.773c0.884,29.755,22.563,42.487,31.453,42.784c4.188,0.162,7.578-1.308,9.961-2.854
			c4.731,4.165,14.092,11.003,26.251,12.889c2.384,0.368,4.684,0.556,6.838,0.556c12.531,0,18.182-6.303,20.594-8.994
			c0.173-0.191,0.33-0.368,0.468-0.515c0.289-0.309,0.891-0.948,3.428-0.948c1.801,0,4.23,0.335,7.304,1.014
			c2.792,0.568,5.268,0.844,7.566,0.844c10.313,0,15.421-5.504,21.887-12.472c1.088-1.173,2.246-2.421,3.509-3.731
			c0.045-0.047,0.09-0.095,0.132-0.144c9.985-11.23,11.873-24.816,13.043-38.92c0.076-0.688,0.163-1.368,0.261-2.044
			c0.069-0.483,0.15-0.961,0.232-1.448l0.101-0.621c0.09-0.512,0.19-1.017,0.295-1.541l0.099-0.505
			c0.107-0.519,0.225-1.033,0.346-1.554l0.102-0.448c0.126-0.531,0.261-1.056,0.398-1.585l0.101-0.39
			c0.145-0.547,0.3-1.088,0.455-1.627l0.085-0.302c0.171-0.578,0.347-1.152,0.516-1.688l0.066-0.213
			c0.197-0.622,0.402-1.239,0.608-1.851c1.66-4.878,3.689-9.628,5.65-14.222c4.715-11.037,9.59-22.451,9.409-35.92
			c-0.011-1.506-0.083-2.993-0.216-4.489C189.508,128.355,189.504,128.308,189.501,128.26z"/>
	</g>
	<path style="fill:#FFFFFF;" d="M189.501,128.26c-0.003-0.05-0.014-0.196-0.018-0.247c-0.008-0.083-0.017-0.167-0.029-0.249
		c-1.759-18.4-12.414-31.639-28.762-35.985c-5.051-15.638-19.18-21.305-31.219-21.305c-1.218,0-2.439,0.058-3.595,0.169
		l-0.221,0.022c-0.473,0.048-0.938,0.104-1.381,0.166l-0.345,0.051c-0.399,0.061-0.794,0.127-1.183,0.199l-0.409,0.078
		c-0.368,0.074-0.727,0.153-1.094,0.24l-0.392,0.094c-0.369,0.093-0.727,0.191-1.153,0.315l-0.278,0.08
		c-0.462,0.144-0.911,0.293-1.341,0.452c-1.672,0.618-3.206,1.096-4.694,1.461l-0.472,0.115c-0.358,0.083-0.713,0.152-1.036,0.215
		l-0.421,0.084c-0.469,0.082-0.935,0.153-1.389,0.207l-0.259,0.024c-0.381,0.041-0.761,0.077-1.132,0.1l-0.501,0.021
		c-0.234,0.008-0.469,0.016-0.704,0.02c-0.527-7.428-2.105-17.599-7.096-32.41C91.678,14.285,80.372,7.384,72.626,4.619
		c-0.719-0.257-1.481-0.41-2.337-0.465c-0.248-0.037-0.503-0.047-0.761-0.054c-0.236,0.002-0.483,0.023-0.743,0.055
		c-0.182,0.015-0.359,0.031-0.53,0.056c-0.38,0.052-0.763,0.128-1.107,0.215c-0.052,0.012-0.103,0.023-0.154,0.035
		c-0.078,0.018-0.157,0.041-0.235,0.064c-0.097,0.026-0.2,0.058-0.323,0.095c-0.32,0.102-0.642,0.222-0.946,0.347
		c-0.084,0.034-0.17,0.071-0.255,0.107c-0.036,0.017-0.079,0.034-0.086,0.037c-0.14,0.058-0.277,0.117-0.399,0.178
		c-0.24,0.114-0.48,0.244-0.727,0.381c-0.031,0.017-0.063,0.034-0.093,0.053c-0.011,0.007-0.099,0.058-0.109,0.064
		c-0.136,0.077-0.27,0.155-0.4,0.235c-0.096,0.056-0.22,0.13-0.293,0.178c-0.144,0.094-0.286,0.193-0.493,0.34
		c-0.027,0.019-0.056,0.04-0.083,0.06c-0.86,0.612-1.678,1.313-2.397,2.048c-0.028,0.027-0.057,0.057-0.086,0.087
		c-0.418,0.431-0.843,0.909-1.265,1.429c-0.089,0.109-0.178,0.226-0.313,0.408c-0.137,0.175-0.273,0.352-0.375,0.492
		c-0.069,0.089-0.137,0.179-0.187,0.25c-0.12,0.167-0.238,0.34-0.342,0.494c-0.098,0.145-0.193,0.295-0.289,0.446l-0.159,0.252
		c-0.091,0.139-0.179,0.276-0.264,0.419c-0.136,0.226-0.268,0.456-0.41,0.709c-0.098,0.177-0.195,0.356-0.285,0.525
		c-0.092,0.171-0.181,0.345-0.271,0.525c-0.153,0.303-0.301,0.616-0.438,0.918l-0.042,0.089c-0.066,0.138-0.131,0.275-0.186,0.4
		c-0.058,0.13-0.112,0.266-0.197,0.482c-0.134,0.325-0.263,0.655-0.388,0.993l-0.053,0.136c-0.055,0.145-0.11,0.288-0.171,0.461
		c-0.046,0.136-0.091,0.274-0.135,0.415l-0.033,0.109c-0.098,0.299-0.191,0.599-0.285,0.913c-0.08,0.271-0.157,0.545-0.224,0.798
		c-0.059,0.219-0.114,0.44-0.171,0.672c-0.057,0.234-0.112,0.472-0.163,0.7c-0.071,0.324-0.135,0.657-0.21,1.068l-0.035,0.184
		c-0.036,0.183-0.07,0.365-0.103,0.56l-0.075,0.485c-0.063,0.424-0.112,0.863-0.159,1.302l-0.035,0.306
		c-0.023,0.186-0.046,0.373-0.062,0.56l-0.022,0.258c-0.068,0.877-0.107,1.707-0.117,2.535c-0.005,0.462-0.003,0.905,0.004,1.337
		l0.003,0.163l0.009,0.35c0.005,0.263,0.013,0.521,0.023,0.771l0.03,0.632c0.013,0.211,0.025,0.415,0.04,0.6l0.055,0.705
		c0.004,0.045,0.008,0.089,0.013,0.133l0.032,0.315c0.003,0.033,0.008,0.08,0.014,0.126c0.026,0.257,0.057,0.505,0.087,0.731
		l0.022,0.164c0.779,5.674,3.008,9.255,6.634,10.644c0.242,0.092,0.482,0.169,0.72,0.234c0.041,0.013,0.154,0.042,0.197,0.053
		c0.188,0.046,0.373,0.087,0.521,0.113l0.211,0.036c0.034,0.006,0.068,0.011,0.103,0.015c0.133,0.02,0.266,0.034,0.471,0.054
		c0.073,0.007,0.234,0.019,0.307,0.021l0.246,0.008c0.032,0.001,0.137,0.002,0.169,0.002c1.737,0,3.533-0.544,5.085-1.538
		c0.053-0.008,0.134-0.015,0.246-0.015c1.299,0,3.724,0.813,6.67,3.085c6.29,5.977,9.343,13.666,10.824,19.802
		c-0.088-0.025-0.175-0.05-0.263-0.073c-0.12-0.031-0.242-0.058-0.364-0.078c-2.354-0.582-4.803-0.875-7.284-0.875
		c-16.35,0-30.718,12.643-35.411,17.25c-12.232,0.128-22.504,7.058-30.535,20.603c-0.057,0.097-0.11,0.194-0.16,0.295
		c-9.607,19.106-11.036,43.144-3.641,61.238c6.848,16.757,10.027,26.544,10.765,40.229l0.02,0.392
		c0.046,0.9,0.083,1.815,0.106,2.773c0.884,29.755,22.563,42.487,31.453,42.784c4.188,0.162,7.578-1.308,9.961-2.854
		c4.731,4.165,14.092,11.003,26.251,12.889c2.384,0.368,4.684,0.556,6.838,0.556c12.531,0,18.182-6.303,20.594-8.994
		c0.173-0.191,0.33-0.368,0.468-0.515c0.289-0.309,0.891-0.948,3.428-0.948c1.801,0,4.23,0.335,7.304,1.014
		c2.792,0.568,5.268,0.844,7.566,0.844c10.313,0,15.421-5.504,21.887-12.472c1.088-1.173,2.246-2.421,3.509-3.731
		c0.045-0.047,0.09-0.095,0.132-0.144c9.985-11.23,11.873-24.816,13.043-38.92c0.076-0.688,0.163-1.368,0.261-2.044
		c0.069-0.483,0.15-0.961,0.232-1.448l0.101-0.621c0.09-0.512,0.19-1.017,0.295-1.541l0.099-0.505
		c0.107-0.519,0.225-1.033,0.346-1.554l0.102-0.448c0.126-0.531,0.261-1.056,0.398-1.585l0.101-0.39
		c0.145-0.547,0.3-1.088,0.455-1.627l0.085-0.302c0.171-0.578,0.347-1.152,0.516-1.688l0.066-0.213
		c0.197-0.622,0.402-1.239,0.608-1.851c1.66-4.878,3.689-9.628,5.65-14.222c4.715-11.037,9.59-22.451,9.409-35.92
		c-0.011-1.506-0.083-2.993-0.216-4.489C189.508,128.355,189.504,128.308,189.501,128.26z"/>
	<g>
		<g>
			
				<radialGradient id="SVGID_1_" cx="91.3023" cy="119.8711" r="107.4458" gradientTransform="matrix(0.9842 0 0 0.9912 2.9772 -0.7712)" gradientUnits="userSpaceOnUse">
				<stop  offset="0.0913" style="stop-color:#EF4F15"/>
				<stop  offset="0.3654" style="stop-color:#E32600"/>
				<stop  offset="0.7046" style="stop-color:#BF1A02"/>
				<stop  offset="0.9409" style="stop-color:#971305"/>
			</radialGradient>
			<path style="fill:url(#SVGID_1_);" d="M44.012,88.689c0,0,23.023-25.284,44.573-14.749c12.974,6.744,20.923,6.744,31.18,2.949
				c10.244-3.792,32.211-1.889,37.025,18.969c14.226,2.734,27.787,13.586,28.086,37.05c0.314,23.47-15.934,40.145-18.701,65.458
				c-1.133,13.684-2.792,25.988-11.839,36.163c-10.102,10.479-13.57,17.006-28.505,13.972c-8.898-1.968-12.814-1.205-15.23,1.365
				c-2.415,2.582-7.675,9.953-23.623,7.482c-15.946-2.473-26.768-14.616-26.768-14.616s-3.89,4.733-10.023,4.526
				c-6.131-0.204-25.961-10.909-26.769-38.081c-0.422-16.673-4.098-27.583-11.249-45.084c-7.152-17.501-5.106-40.14,3.483-57.225
				C25.05,91.02,35.807,88.216,44.012,88.689z"/>
			<g>
				
					<radialGradient id="SVGID_00000145737975389188537250000004576448601392632470_" cx="89.0479" cy="152.5505" r="67.2304" gradientTransform="matrix(0.9842 0 0 0.9912 2.9772 -0.7712)" gradientUnits="userSpaceOnUse">
					<stop  offset="0.5326" style="stop-color:#FFFFFF"/>
					<stop  offset="0.7639" style="stop-color:#E32600"/>
					<stop  offset="0.8452" style="stop-color:#BF1A02"/>
					<stop  offset="0.9409" style="stop-color:#971305"/>
				</radialGradient>
				<path style="fill:url(#SVGID_00000145737975389188537250000004576448601392632470_);" d="M44.143,88.65
					c18.089,5.539,17.413,15.896,9.658,28.192c-7.737,12.29-8.027,30.286-6.841,42.582c3.277-29.683,6.516-53.34,36.284-57.454
					c12.246-1.563,33.582-1.072,43.998,11.691c5.313,8.03,8.431,19.303,8.025,45.033c2.249-25.73-0.258-33.301-3.73-42.153
					c-3.473-8.852,1.044-23.415,25.425-20.618c-9.501-4.879-27.88,2.095-34.42-6.137c-4.789-6.032-1.235-13.052,8.3-14.435
					c-4.215-0.171-8.131,0.448-11.077,1.537c-10.257,3.795-18.206,3.795-31.18-2.949c-1.567-0.771-3.147-1.341-4.726-1.748
					C81.459,86.493,69.817,85.606,44.143,88.65z"/>
				
					<radialGradient id="SVGID_00000155849662197744823370000013086988207771425690_" cx="91.6175" cy="49.4209" r="68.9848" gradientTransform="matrix(0.9842 0 0 0.9912 2.9772 -0.7712)" gradientUnits="userSpaceOnUse">
					<stop  offset="0.8371" style="stop-color:#650E08"/>
					<stop  offset="0.9" style="stop-color:#E32600"/>
					<stop  offset="1" style="stop-color:#FFFFFF"/>
				</radialGradient>
				<path style="fill:url(#SVGID_00000155849662197744823370000013086988207771425690_);" d="M131.537,96.783
					c6.749-4.015-4.91,0.614-13.796-9.268c-2.977-3.153-4.021-6.222-2.503-9.172c-8.252,2.183-15.654,1.322-26.653-4.403
					c-0.288-0.136-0.562-0.262-0.848-0.386c-1.581,4.23-6.736,14.58-19.671,14.58c-11.342-0.305-5.206,2.779-3.364,4.634
					c1.84,1.854,2.15,8.027-2.141,12.968c-4.297,4.945-8.56,12.48,6.272,0.31c0.5-0.407,1.608-0.62,2.929-1.036
					c3.313-1.4,7.098-2.434,11.481-3.039c10.458-1.336,27.514-1.163,38.762,6.845c0.018,0.002,0.018,0.002,0.03,0.013
					C121.724,106.046,124.789,100.796,131.537,96.783z"/>
			</g>
			<g>
				<defs>
					<filter id="Adobe_OpacityMaskFilter" filterUnits="userSpaceOnUse" x="17.637" y="128.452" width="167.244" height="129.396">
						<feFlood  style="flood-color:white;flood-opacity:1" result="back"/>
						<feBlend  in="SourceGraphic" in2="back" mode="normal"/>
					</filter>
				</defs>
				
					<mask maskUnits="userSpaceOnUse" x="17.637" y="128.452" width="167.244" height="129.396" id="SVGID_00000051379633017995217250000010219989554829627023_">
					<g style="filter:url(#Adobe_OpacityMaskFilter);">
						<defs>
							
								<filter id="Adobe_OpacityMaskFilter_00000066493312572378254140000013906122956302784427_" filterUnits="userSpaceOnUse" x="17.637" y="128.452" width="167.244" height="129.396">
								<feFlood  style="flood-color:white;flood-opacity:1" result="back"/>
								<feBlend  in="SourceGraphic" in2="back" mode="normal"/>
							</filter>
						</defs>
						
							<mask maskUnits="userSpaceOnUse" x="17.637" y="128.452" width="167.244" height="129.396" id="SVGID_00000051379633017995217250000010219989554829627023_">
							<g style="filter:url(#Adobe_OpacityMaskFilter_00000066493312572378254140000013906122956302784427_);">
							</g>
						</mask>
						
							<radialGradient id="SVGID_00000170982139849335484010000017079585811058259383_" cx="101.3387" cy="117.1143" r="315.9205" gradientTransform="matrix(0.9842 0 0 0.9912 2.9772 -0.7712)" gradientUnits="userSpaceOnUse">
							<stop  offset="0" style="stop-color:#000000"/>
							<stop  offset="1" style="stop-color:#FFFFFF"/>
						</radialGradient>
						
							<path style="mask:url(#SVGID_00000051379633017995217250000010219989554829627023_);fill:url(#SVGID_00000170982139849335484010000017079585811058259383_);" d="
							M184.652,128.452c0.212,18.282-7.775,31.776-14.525,43.806c-8.44,15.041-14.931,21.579-21.755,41.531
							c-6.809,19.957-18.703,11.69-13.836-14.479c4.869-26.162,0.851-39.812,0.851-39.812
							c-9.425,60.514-25.502,73.396-47.587,72.414c-22.082-0.978-35.176-48.367-40.366-75.18c0,24.526,0,65.157-5.263,65.896
							c-11,1.538-13.312-20.609-23.373-41.871c-0.403-0.834-0.784-1.656-1.161-2.473c3.594,10.3,5.494,19.175,5.781,30.893
							c0.808,27.172,20.638,37.877,26.769,38.081c6.134,0.207,10.023-4.526,10.023-4.526s10.821,12.144,26.768,14.616
							c15.948,2.471,21.208-4.9,23.623-7.482c2.416-2.57,6.332-3.333,15.23-1.365c14.935,3.034,18.403-3.493,28.505-13.972
							c9.047-10.175,10.706-22.479,11.839-36.163c2.767-25.314,19.016-41.988,18.701-65.458
							C184.864,131.368,184.787,129.883,184.652,128.452z"/>
					</g>
				</mask>
				
					<radialGradient id="SVGID_00000043456896015379139240000003003586535562702242_" cx="89.77" cy="61.3871" r="180.0715" gradientTransform="matrix(0.9842 0 0 0.9912 2.9772 -0.7712)" gradientUnits="userSpaceOnUse">
					<stop  offset="0.5326" style="stop-color:#FFFFFF"/>
					<stop  offset="0.7639" style="stop-color:#E32600"/>
					<stop  offset="0.8452" style="stop-color:#BF1A02"/>
					<stop  offset="0.9409" style="stop-color:#971305"/>
				</radialGradient>
				<path style="fill:url(#SVGID_00000043456896015379139240000003003586535562702242_);" d="M184.652,128.452
					c0.212,18.282-7.775,31.776-14.525,43.806c-8.44,15.041-14.931,21.579-21.755,41.531c-6.809,19.957-18.703,11.69-13.836-14.479
					c4.869-26.162,0.851-39.812,0.851-39.812c-9.425,60.514-25.502,73.396-47.587,72.414c-22.082-0.978-35.176-48.367-40.366-75.18
					c0,24.526,0,65.157-5.263,65.896c-11,1.538-13.312-20.609-23.373-41.871c-0.403-0.834-0.784-1.656-1.161-2.473
					c3.594,10.3,5.494,19.175,5.781,30.893c0.808,27.172,20.638,37.877,26.769,38.081c6.134,0.207,10.023-4.526,10.023-4.526
					s10.821,12.144,26.768,14.616c15.948,2.471,21.208-4.9,23.623-7.482c2.416-2.57,6.332-3.333,15.23-1.365
					c14.935,3.034,18.403-3.493,28.505-13.972c9.047-10.175,10.706-22.479,11.839-36.163c2.767-25.314,19.016-41.988,18.701-65.458
					C184.864,131.368,184.787,129.883,184.652,128.452z"/>
			</g>
			
				<radialGradient id="SVGID_00000182487344355526520630000014123879937663424186_" cx="150.9505" cy="202.8815" r="151.5724" gradientTransform="matrix(0.9842 0 0 0.9912 2.9772 -0.7712)" gradientUnits="userSpaceOnUse">
				<stop  offset="0.4067" style="stop-color:#000000"/>
				<stop  offset="0.4346" style="stop-color:#050100"/>
				<stop  offset="0.4668" style="stop-color:#130300"/>
				<stop  offset="0.5011" style="stop-color:#2A0600"/>
				<stop  offset="0.5369" style="stop-color:#4A0A01"/>
				<stop  offset="0.5738" style="stop-color:#741001"/>
				<stop  offset="0.6112" style="stop-color:#A61702"/>
				<stop  offset="0.6279" style="stop-color:#BF1A02"/>
				<stop  offset="0.6667" style="stop-color:#C01D06"/>
				<stop  offset="0.704" style="stop-color:#C32811"/>
				<stop  offset="0.7406" style="stop-color:#C83925"/>
				<stop  offset="0.7768" style="stop-color:#CF5240"/>
				<stop  offset="0.8128" style="stop-color:#D87263"/>
				<stop  offset="0.8486" style="stop-color:#E2998E"/>
				<stop  offset="0.8842" style="stop-color:#EFC7C1"/>
				<stop  offset="0.9189" style="stop-color:#FEFBFA"/>
				<stop  offset="0.9215" style="stop-color:#FFFFFF"/>
				<stop  offset="1" style="stop-color:#000000"/>
			</radialGradient>
			<path style="fill:url(#SVGID_00000182487344355526520630000014123879937663424186_);" d="M93.594,105.137
				c0,0-32.525-4.211-40.886,28.554c-6.502,36.969,12.788,86.977,30.381,88.453C105.393,224.016,152.643,108.759,93.594,105.137z"/>
			
				<radialGradient id="SVGID_00000084524240614179978190000016201713636913199756_" cx="-4.7218" cy="95.9628" r="75.871" gradientTransform="matrix(0.9842 0 0 0.9912 2.9772 -0.7712)" gradientUnits="userSpaceOnUse">
				<stop  offset="0.2451" style="stop-color:#FFFFFF"/>
				<stop  offset="0.608" style="stop-color:#E32600"/>
				<stop  offset="0.693" style="stop-color:#BF1A02"/>
				<stop  offset="0.9782" style="stop-color:#000000"/>
			</radialGradient>
			<path style="fill:url(#SVGID_00000084524240614179978190000016201713636913199756_);" d="M34.212,92.341
				c0,0-22.854,9.997-22.854,46.435c0,36.435,24.927,73.722,26.769,60.137c1.841-13.591-10.138-46.097,8.796-76.813
				C57.952,104.192,47.706,86.164,34.212,92.341z"/>
			
				<radialGradient id="SVGID_00000165211304194118359590000004169137207111198107_" cx="203.0865" cy="100.4663" r="74.3417" gradientTransform="matrix(0.9842 0 0 0.9912 2.9772 -0.7712)" gradientUnits="userSpaceOnUse">
				<stop  offset="0.2451" style="stop-color:#FFFFFF"/>
				<stop  offset="0.608" style="stop-color:#E32600"/>
				<stop  offset="0.693" style="stop-color:#BF1A02"/>
				<stop  offset="0.9782" style="stop-color:#000000"/>
			</radialGradient>
			<path style="fill:url(#SVGID_00000165211304194118359590000004169137207111198107_);" d="M145.514,109.207
				c0,0,9.425,21.772,8.691,45.712c-0.72,23.933,32.751-1.771,27.331-29.03C175.049,93.244,133.284,90.346,145.514,109.207z"/>
			<g>
				
					<radialGradient id="SVGID_00000165195287178530543540000015303489133604815804_" cx="95.1444" cy="76.0443" r="42.951" gradientTransform="matrix(0.9842 0 0 0.9912 2.9772 -0.7712)" gradientUnits="userSpaceOnUse">
					<stop  offset="0.0136" style="stop-color:#719F07"/>
					<stop  offset="0.5217" style="stop-color:#38770E"/>
					<stop  offset="0.6494" style="stop-color:#38720D"/>
					<stop  offset="0.7927" style="stop-color:#36650B"/>
					<stop  offset="0.943" style="stop-color:#344F07"/>
					<stop  offset="1" style="stop-color:#334405"/>
				</radialGradient>
				<path style="fill:url(#SVGID_00000165195287178530543540000015303489133604815804_);" d="M128.874,95.846
					c-0.391-1.273-2.821-1.178-7.493-3.234c-4.373-2.45-5.157-5.387-6.121-5.387c-0.975,0-3.017,1.865-8.368,2.353
					c-5.349,0.488-16.519-1.471-19.154-3.724c-2.625-2.253-2.625-2.746-4.662-3.621c-2.048-0.886-0.677,3.072-5.426,5.722
					c-4.742,2.654-12.651,1.858-12.651,1.858c-2.011-0.795,3.999,4.651,2.927,7.585c-1.072,2.935-0.927,6.335-2.455,7.413
					c-1.531,1.076,0,0,3.364,1.235c8.632-3.361,16.776-4.724,24.356-4.699c0.276-0.009,0.538-0.009,0.811-0.009
					c1.854,0.017,3.721-0.028,5.561,0.16c0.964,0.099,1.879,0.284,2.793,0.512l0.013-0.006c1.971,0.188,3.94,0.56,5.818,1.211
					c4.033,0.997,7.847,2.346,11.396,3.909C119.88,103.425,129.266,97.113,128.874,95.846z"/>
				
					<radialGradient id="SVGID_00000052803158526046855100000015028228900600027551_" cx="122.1066" cy="89.2824" r="18.4232" gradientTransform="matrix(0.9842 0 0 0.9912 2.9772 -0.7712)" gradientUnits="userSpaceOnUse">
					<stop  offset="0.0841" style="stop-color:#719F07"/>
					<stop  offset="0.3847" style="stop-color:#38770E"/>
					<stop  offset="0.5379" style="stop-color:#365F0A"/>
					<stop  offset="0.6838" style="stop-color:#334405"/>
					<stop  offset="0.9781" style="stop-color:#000000"/>
				</radialGradient>
				<path style="fill:url(#SVGID_00000052803158526046855100000015028228900600027551_);" d="M106.531,92.559
					c0,0,3.585-1.253,6.705-3.14c3.122-1.881,1.556,0.631,1.396,2.824c-0.153,2.199,1.869,4.391,4.986,4.552
					c3.118,0.153,1.081,2.824-4.359,1.885C109.806,97.729,104.976,93.028,106.531,92.559z"/>
				
					<radialGradient id="SVGID_00000145031686863862923720000012982842383502102686_" cx="61.2668" cy="78.0623" r="27.0861" gradientTransform="matrix(0.9842 0 0 0.9912 2.9772 -0.7712)" gradientUnits="userSpaceOnUse">
					<stop  offset="0.0841" style="stop-color:#719F07"/>
					<stop  offset="0.3847" style="stop-color:#38770E"/>
					<stop  offset="0.5379" style="stop-color:#365F0A"/>
					<stop  offset="0.6838" style="stop-color:#334405"/>
					<stop  offset="0.9781" style="stop-color:#000000"/>
				</radialGradient>
				<path style="fill:url(#SVGID_00000145031686863862923720000012982842383502102686_);" d="M70.43,90.813
					c0,0,3.056,1.029,8.991-0.41c5.928-1.446,0.197,3.293-3.48,3.293C72.26,93.695,67.364,90.402,70.43,90.813z"/>
				
					<radialGradient id="SVGID_00000060719193717708967860000011804154203567543197_" cx="66.8639" cy="99.0823" r="7.7488" gradientTransform="matrix(0.9842 0 0 0.9912 2.9772 -0.7712)" gradientUnits="userSpaceOnUse">
					<stop  offset="0.0841" style="stop-color:#719F07"/>
					<stop  offset="0.3847" style="stop-color:#38770E"/>
					<stop  offset="0.5379" style="stop-color:#365F0A"/>
					<stop  offset="0.6838" style="stop-color:#334405"/>
					<stop  offset="0.9781" style="stop-color:#000000"/>
				</radialGradient>
				<path style="fill:url(#SVGID_00000060719193717708967860000011804154203567543197_);" d="M74.514,100.079
					c0,0-3.395,1.626-5.388,2.688c-1.985,1.063-0.341,0.945,4.213,0.124C77.896,102.062,75.558,99.606,74.514,100.079z"/>
				<g style="opacity:0.5;">
					
						<radialGradient id="SVGID_00000085933412481462639200000008952455547433105045_" cx="95.1413" cy="76.0321" r="42.9696" gradientTransform="matrix(0.9842 0 0 0.9912 2.9772 -0.7712)" gradientUnits="userSpaceOnUse">
						<stop  offset="0.0827" style="stop-color:#FFFFFF"/>
						<stop  offset="0.397" style="stop-color:#38770E"/>
						<stop  offset="0.6708" style="stop-color:#334405"/>
						<stop  offset="0.889" style="stop-color:#719F07"/>
						<stop  offset="1" style="stop-color:#FFFFFF"/>
					</radialGradient>
					<path style="fill:url(#SVGID_00000085933412481462639200000008952455547433105045_);" d="M110.195,89.031
						c-0.926,0.227-2.023,0.426-3.304,0.546c-4.827,0.438-14.42-1.11-18.165-3.084C92.058,90.988,98.697,95.813,110.195,89.031z"/>
					
						<radialGradient id="SVGID_00000062894026450199595780000008803340348553742209_" cx="95.148" cy="76.0417" r="42.9581" gradientTransform="matrix(0.9842 0 0 0.9912 2.9772 -0.7712)" gradientUnits="userSpaceOnUse">
						<stop  offset="0.0827" style="stop-color:#FFFFFF"/>
						<stop  offset="0.397" style="stop-color:#38770E"/>
						<stop  offset="0.6708" style="stop-color:#334405"/>
						<stop  offset="0.889" style="stop-color:#719F07"/>
						<stop  offset="1" style="stop-color:#FFFFFF"/>
					</radialGradient>
					<path style="fill:url(#SVGID_00000062894026450199595780000008803340348553742209_);" d="M82.736,82.121
						c-1.563-0.286-0.639,3.34-5.087,5.833c-3.2,1.791-7.82,2.012-10.509,1.963c1.316,0.137,2.868,0.293,4.712,0.485
						C82.37,91.591,83.113,85.547,82.736,82.121z"/>
					
						<radialGradient id="SVGID_00000015323200478973866450000017663830239982980272_" cx="95.1283" cy="76.0361" r="42.9756" gradientTransform="matrix(0.9842 0 0 0.9912 2.9772 -0.7712)" gradientUnits="userSpaceOnUse">
						<stop  offset="0.0827" style="stop-color:#FFFFFF"/>
						<stop  offset="0.397" style="stop-color:#38770E"/>
						<stop  offset="0.6708" style="stop-color:#334405"/>
						<stop  offset="0.889" style="stop-color:#719F07"/>
						<stop  offset="1" style="stop-color:#FFFFFF"/>
					</radialGradient>
					<path style="fill:url(#SVGID_00000015323200478973866450000017663830239982980272_);" d="M127.699,94.858
						c-1.199-0.485-3.293-0.91-6.318-2.247c-2.596-1.459-3.928-3.075-4.778-4.16C116.106,92.25,116.895,98.198,127.699,94.858z"/>
					
						<radialGradient id="SVGID_00000088815462225717665530000001821044757407352474_" cx="95.1408" cy="76.0378" r="42.9581" gradientTransform="matrix(0.9842 0 0 0.9912 2.9772 -0.7712)" gradientUnits="userSpaceOnUse">
						<stop  offset="0.0827" style="stop-color:#FFFFFF"/>
						<stop  offset="0.397" style="stop-color:#38770E"/>
						<stop  offset="0.6708" style="stop-color:#334405"/>
						<stop  offset="0.889" style="stop-color:#719F07"/>
						<stop  offset="1" style="stop-color:#FFFFFF"/>
					</radialGradient>
					<path style="fill:url(#SVGID_00000088815462225717665530000001821044757407352474_);" d="M125.688,99.452
						c-5.547,0.636-11.551,2.269-5.757,6.471C120.887,103.902,123.521,101.451,125.688,99.452z"/>
					
						<radialGradient id="SVGID_00000038383738676126311200000013158366430636337845_" cx="95.1347" cy="76.0417" r="42.944" gradientTransform="matrix(0.9842 0 0 0.9912 2.9772 -0.7712)" gradientUnits="userSpaceOnUse">
						<stop  offset="0.0827" style="stop-color:#FFFFFF"/>
						<stop  offset="0.397" style="stop-color:#38770E"/>
						<stop  offset="0.6708" style="stop-color:#334405"/>
						<stop  offset="0.889" style="stop-color:#719F07"/>
						<stop  offset="1" style="stop-color:#FFFFFF"/>
					</radialGradient>
					<path style="fill:url(#SVGID_00000038383738676126311200000013158366430636337845_);" d="M72.676,95.133
						c-0.758-1.966-4.23-3.229-7.309-3.995c1.175,1.665,3.225,4.443,2.558,6.26c-0.822,2.233-0.927,4.733-1.608,6.278
						C72.452,99.289,73.953,98.439,72.676,95.133z"/>
				</g>
				
					<radialGradient id="SVGID_00000078763370489826755670000009709673051953271201_" cx="83.0256" cy="127.9995" r="38.5597" gradientTransform="matrix(0.9842 0 0 0.9912 2.9772 -0.7712)" gradientUnits="userSpaceOnUse">
					<stop  offset="0.0827" style="stop-color:#FFFFFF"/>
					<stop  offset="0.397" style="stop-color:#38770E"/>
					<stop  offset="0.6708" style="stop-color:#334405"/>
					<stop  offset="0.889" style="stop-color:#719F07"/>
					<stop  offset="1" style="stop-color:#FFFFFF"/>
				</radialGradient>
				<path style="opacity:0.5;fill:url(#SVGID_00000078763370489826755670000009709673051953271201_);" d="M115.093,99.952
					c-4.66-1.786-12.424-6.702-12.424-6.702l-19.984,0.445c0,0-5.09,2.683-7.974,3.13c-2.898,0.443,1.11,3.351,5.104,5.359
					c3.053-0.394,6.499-0.628,10.059-0.679c1.375-0.138,2.717-0.172,4.128-0.168c1.854,0.017,3.721-0.028,5.561,0.16
					c0.964,0.099,1.879,0.284,2.793,0.512l0.013-0.006c1.693,0.164,3.392,0.459,5.022,0.954c2.416,0.492,4.646,1.13,6.595,1.913
					C117.531,102.185,119.75,101.743,115.093,99.952z"/>
				<g>
					
						<radialGradient id="SVGID_00000023978071076712348370000002942724425447850919_" cx="95.7003" cy="11.2872" r="97.6167" gradientTransform="matrix(0.9842 0 0 0.9912 2.9772 -0.7712)" gradientUnits="userSpaceOnUse">
						<stop  offset="0.0136" style="stop-color:#719F07"/>
						<stop  offset="0.5217" style="stop-color:#38770E"/>
						<stop  offset="0.6494" style="stop-color:#38720D"/>
						<stop  offset="0.7927" style="stop-color:#36650B"/>
						<stop  offset="0.943" style="stop-color:#344F07"/>
						<stop  offset="1" style="stop-color:#334405"/>
					</radialGradient>
					<path style="fill:url(#SVGID_00000023978071076712348370000002942724425447850919_);" d="M109.048,96.989
						c-5.925-3.711-5.925-9.675-6.122-15.03c-0.208-5.351,0.197-16.465-7.161-38.285C86.978,15.472,75.7,10.866,70.992,9.186
						c-4.714-1.684-13.378,5.964-13.538,19.897c-0.141,13.92,5.327,13.008,7.613,11.474c2.27-1.528,7.137-0.765,12.606,3.524
						c13.379,12.546,14.892,32.902,13.52,39.791c-1.37,6.889-13.979,11.941-15.493,12.854c-1.524,0.918,5.473,5.813,5.473,5.813
						c5.53-1.266,10.559-1.449,14.668-1.193c1.24,0.008,2.479,0.027,3.721,0.151c0.964,0.099,1.879,0.284,2.793,0.512l0.013-0.006
						c1.942,0.188,3.901,0.56,5.754,1.188c2.351-0.339,7.01-1.111,6.863-1.88C114.778,100.283,113.555,100.079,109.048,96.989z"/>
					<g style="opacity:0.4;">
						
							<linearGradient id="SVGID_00000076564656831951178670000012596508030455008700_" gradientUnits="userSpaceOnUse" x1="117.5186" y1="25.8489" x2="95.1564" y2="50.3236">
							<stop  offset="0.0133" style="stop-color:#FFFFFF"/>
							<stop  offset="0.2961" style="stop-color:#719F07"/>
							<stop  offset="0.6393" style="stop-color:#38770E"/>
							<stop  offset="0.7356" style="stop-color:#38720D"/>
							<stop  offset="0.8436" style="stop-color:#36650B"/>
							<stop  offset="0.957" style="stop-color:#344F07"/>
							<stop  offset="1" style="stop-color:#334405"/>
						</linearGradient>
						<path style="fill:url(#SVGID_00000076564656831951178670000012596508030455008700_);" d="M109.048,96.989
							c-1.185-0.748-2.126-1.589-2.899-2.498c0.25,0.524,0.58,0.98,0.997,1.349c4.277,3.693,4.696,5.124-2.035,2.665
							c-6.728-2.465-1.216,3.688-5.096,1.85c-3.873-1.85-5.909-3.489-11.208-1.85c-5.298,1.638-9.778,0.406-0.406-4.102
							c9.982-5.952,9.373-22.78,0.614-44.328C80.258,28.524,71.905,33.243,73.115,21.75c0.656-6.134-0.259-9.979-1.25-12.238
							c-0.313-0.117-0.615-0.229-0.873-0.326c-4.714-1.684-13.378,5.964-13.538,19.897c-0.141,13.92,5.327,13.008,7.613,11.474
							c2.27-1.528,7.137-0.765,12.606,3.524c13.379,12.546,14.892,32.902,13.52,39.791c-1.37,6.889-13.979,11.941-15.493,12.854
							c-1.524,0.918,5.473,5.813,5.473,5.813c5.53-1.266,10.559-1.449,14.668-1.193c1.24,0.008,2.479,0.027,3.721,0.151
							c0.964,0.099,1.879,0.284,2.793,0.512l0.013-0.006c1.942,0.188,3.901,0.56,5.754,1.188c2.351-0.339,7.01-1.111,6.863-1.88
							C114.778,100.283,113.555,100.079,109.048,96.989z"/>
					</g>
					<g>
						
							<linearGradient id="SVGID_00000140000581339393295260000012113000042072283784_" gradientUnits="userSpaceOnUse" x1="136.0488" y1="48.5787" x2="118.6833" y2="49.8045">
							<stop  offset="0.0133" style="stop-color:#FFFFFF"/>
							<stop  offset="0.2961" style="stop-color:#719F07"/>
							<stop  offset="0.6393" style="stop-color:#38770E"/>
							<stop  offset="0.7356" style="stop-color:#38720D"/>
							<stop  offset="0.8436" style="stop-color:#36650B"/>
							<stop  offset="0.957" style="stop-color:#344F07"/>
							<stop  offset="1" style="stop-color:#334405"/>
						</linearGradient>
						<path style="opacity:0.3;fill:url(#SVGID_00000140000581339393295260000012113000042072283784_);" d="M91.419,63.977
							c-0.955-9.562-11.396-23.72-14.636-25.823c-3.221-2.103-7.974-0.959-6.458-6.119c2.874-12.092,0.81-19.578-0.756-23.083
							c-4.845,0.035-11.968,7.502-12.115,20.132c-0.141,13.92,5.327,13.008,7.613,11.474c2.27-1.528,7.137-0.765,12.606,3.524
							c13.379,12.546,14.892,32.902,13.52,39.791c-1.37,6.889-13.979,11.941-15.493,12.854c-0.181,0.107-0.232,0.263-0.205,0.456
							c4.655-0.845,7.346-2.026,13.258-6.045C95.778,86.356,92.37,73.542,91.419,63.977z"/>
					</g>
					<g>
						
							<radialGradient id="SVGID_00000054243518020180849240000003507641421399837107_" cx="44.5481" cy="38.2524" r="72.0033" gradientTransform="matrix(0.9842 0 0 0.9912 2.9772 -0.7712)" gradientUnits="userSpaceOnUse">
							<stop  offset="0.319" style="stop-color:#719F07"/>
							<stop  offset="0.5792" style="stop-color:#38770E"/>
							<stop  offset="0.6915" style="stop-color:#38720D"/>
							<stop  offset="0.8176" style="stop-color:#36650B"/>
							<stop  offset="0.9499" style="stop-color:#344F07"/>
							<stop  offset="1" style="stop-color:#334405"/>
						</radialGradient>
						<path style="fill:url(#SVGID_00000054243518020180849240000003507641421399837107_);" d="M69.308,9.296
							c-0.365-0.12-0.756-0.153-1.163-0.123c-4.696,1.28-10.559,8.476-10.69,19.91c-0.127,11.937,3.88,12.969,6.458,12.047
							C72.01,36.124,72.542,10.385,69.308,9.296z"/>
					</g>
					
						<radialGradient id="SVGID_00000163792149268175274570000015160654011551344798_" cx="83.2787" cy="0.1914" r="87.4207" gradientTransform="matrix(0.9842 0 0 0.9912 2.9772 -0.7712)" gradientUnits="userSpaceOnUse">
						<stop  offset="0.319" style="stop-color:#719F07"/>
						<stop  offset="0.5792" style="stop-color:#38770E"/>
						<stop  offset="0.6915" style="stop-color:#38720D"/>
						<stop  offset="0.8176" style="stop-color:#36650B"/>
						<stop  offset="0.9499" style="stop-color:#344F07"/>
						<stop  offset="1" style="stop-color:#334405"/>
					</radialGradient>
					<path style="opacity:0.4;fill:url(#SVGID_00000163792149268175274570000015160654011551344798_);" d="M74.842,12.189
						c0,0-0.18,3.73,1.854,5.093c2.025,1.358,15.348,12.913,22.941,47.069c2.703,20.387,2.193,5.271,1.345,0.685
						c-0.836-4.593-7.429-27.191-11.644-36.376C85.123,19.496,74.842,10.313,74.842,12.189z"/>
					<g style="opacity:0.3;">
						
							<radialGradient id="SVGID_00000067218588568716015060000011114490344979162020_" cx="44.5456" cy="38.2517" r="72.0195" gradientTransform="matrix(0.9842 0 0 0.9912 2.9772 -0.7712)" gradientUnits="userSpaceOnUse">
							<stop  offset="0.0841" style="stop-color:#719F07"/>
							<stop  offset="0.3847" style="stop-color:#38770E"/>
							<stop  offset="0.5379" style="stop-color:#365F0A"/>
							<stop  offset="0.6838" style="stop-color:#334405"/>
							<stop  offset="0.9781" style="stop-color:#000000"/>
						</radialGradient>
						<path style="fill:url(#SVGID_00000067218588568716015060000011114490344979162020_);" d="M69.308,9.296
							c-0.365-0.12-0.756-0.153-1.163-0.123c-4.696,1.28-10.559,8.476-10.69,19.91c-0.088,8.242,1.805,11.285,3.826,12.073
							c-1.03-2.025-1.816-5.389-1.097-10.861c1.516-11.662,4.269-13.324,4.414-7.219c0.127,6.108,4.119-1.104,1.094-5.548
							c-3.026-4.44,0.837-5.623,2.481-5.763c1.656-0.14,4.136,8.261,1.788,17.278c-0.184,0.724-0.318,1.412-0.392,2.076
							C71.956,21.894,71.488,10.032,69.308,9.296z"/>
					</g>
				</g>
				
					<radialGradient id="SVGID_00000060002736840608251370000017112508548431676306_" cx="94.9386" cy="90.3512" r="4.7575" gradientTransform="matrix(0.9842 0 0 0.9912 2.9772 -0.7712)" gradientUnits="userSpaceOnUse">
					<stop  offset="0.0424" style="stop-color:#FFFFFF"/>
					<stop  offset="0.1855" style="stop-color:#38770E"/>
					<stop  offset="0.3876" style="stop-color:#334405"/>
					<stop  offset="0.6348" style="stop-color:#719F07"/>
					<stop  offset="1" style="stop-color:#FFFFFF"/>
				</radialGradient>
				<path style="opacity:0.2;fill:url(#SVGID_00000060002736840608251370000017112508548431676306_);" d="M98.828,82.574
					c0,0-1.419,8.445-4.49,11.529C92.501,96.158,98.828,95.55,98.828,82.574z"/>
			</g>
			
				<radialGradient id="SVGID_00000049921648535621268730000015470461153265217703_" cx="143.9133" cy="70.7723" r="43.6383" gradientTransform="matrix(0.9842 0 0 0.9912 2.9772 -0.7712)" gradientUnits="userSpaceOnUse">
				<stop  offset="0" style="stop-color:#000000"/>
				<stop  offset="0.0045" style="stop-color:#1C1C1C"/>
				<stop  offset="0.0141" style="stop-color:#646464"/>
				<stop  offset="0.0281" style="stop-color:#D5D5D5"/>
				<stop  offset="0.0331" style="stop-color:#FFFFFF"/>
				<stop  offset="0.0529" style="stop-color:#EFF8E3"/>
				<stop  offset="0.0956" style="stop-color:#C7E69C"/>
				<stop  offset="0.1576" style="stop-color:#88CA2A"/>
				<stop  offset="0.1614" style="stop-color:#84C823"/>
				<stop  offset="0.1665" style="stop-color:#80C222"/>
				<stop  offset="0.2139" style="stop-color:#5E8F19"/>
				<stop  offset="0.2621" style="stop-color:#416311"/>
				<stop  offset="0.3104" style="stop-color:#2A3F0B"/>
				<stop  offset="0.3589" style="stop-color:#172406"/>
				<stop  offset="0.4074" style="stop-color:#0A1003"/>
				<stop  offset="0.4563" style="stop-color:#030401"/>
				<stop  offset="0.5059" style="stop-color:#000000"/>
			</radialGradient>
			<path style="opacity:0.9;fill:url(#SVGID_00000049921648535621268730000015470461153265217703_);" d="M132.659,77.424
				c1.933-0.257,3.969-0.14,4.934,0.099c4.567,1.117,8.689,3.371,11.225,7.545c2.453,4.055-5.17,3.152-7.023,2.858
				c-3.471-0.559-11.17-2.326-13.143-5.755C126.903,79.099,129.669,77.814,132.659,77.424z"/>
			
				<radialGradient id="SVGID_00000132060347170249084550000004372404626781215883_" cx="57.7876" cy="68.3781" r="49.9036" gradientTransform="matrix(0.9842 0 0 0.9912 2.9772 -0.7712)" gradientUnits="userSpaceOnUse">
				<stop  offset="0" style="stop-color:#000000"/>
				<stop  offset="0.0045" style="stop-color:#1C1C1C"/>
				<stop  offset="0.0141" style="stop-color:#646464"/>
				<stop  offset="0.0281" style="stop-color:#D5D5D5"/>
				<stop  offset="0.0331" style="stop-color:#FFFFFF"/>
				<stop  offset="0.0529" style="stop-color:#EFF8E3"/>
				<stop  offset="0.0956" style="stop-color:#C7E69C"/>
				<stop  offset="0.1576" style="stop-color:#88CA2A"/>
				<stop  offset="0.1614" style="stop-color:#84C823"/>
				<stop  offset="0.1665" style="stop-color:#80C222"/>
				<stop  offset="0.2139" style="stop-color:#5E8F19"/>
				<stop  offset="0.2621" style="stop-color:#416311"/>
				<stop  offset="0.3104" style="stop-color:#2A3F0B"/>
				<stop  offset="0.3589" style="stop-color:#172406"/>
				<stop  offset="0.4074" style="stop-color:#0A1003"/>
				<stop  offset="0.4563" style="stop-color:#030401"/>
				<stop  offset="0.5059" style="stop-color:#000000"/>
			</radialGradient>
			<path style="opacity:0.9;fill:url(#SVGID_00000132060347170249084550000004372404626781215883_);" d="M57.327,79.15
				c3.391-2.159,6.759-3.58,7.907-4.096c5.456-2.455,11.276-3.681,16.144-2.281c4.738,1.368,2.157,7.518-5.752,11.159
				c-4.098,1.877-19.618,6.036-24.851,3.292C47.553,85.525,54.063,81.236,57.327,79.15z"/>
			<g>
				
					<radialGradient id="SVGID_00000008141866372849498030000013668510952550274990_" cx="105.5277" cy="109.303" r="166.1533" gradientTransform="matrix(0.9842 0 0 0.9912 2.9772 -0.7712)" gradientUnits="userSpaceOnUse">
					<stop  offset="0.5326" style="stop-color:#FFFFFF"/>
					<stop  offset="0.7639" style="stop-color:#E32600"/>
					<stop  offset="0.8452" style="stop-color:#BF1A02"/>
					<stop  offset="0.9409" style="stop-color:#971305"/>
				</radialGradient>
				<path style="fill:url(#SVGID_00000008141866372849498030000013668510952550274990_);" d="M129.749,243.662
					c-7.66,0.369-5.062-19.816-2.507-38.191c-7.972,33.968-20.478,46.646-40.916,46.646c-20.425,0-33.283-29.353-36.964-67.646
					c-0.366,20.209,8.512,58.461-1.344,56.99c-17.877-2.209-24.601-32.284-24.601-32.284c0.808,27.172,20.638,37.877,26.769,38.081
					c6.134,0.207,10.023-4.526,10.023-4.526s10.821,12.144,26.768,14.616c15.948,2.471,21.208-4.9,23.623-7.482
					c2.416-2.57,6.332-3.333,15.23-1.365c14.935,3.034,18.403-3.493,28.505-13.972c9.047-10.175,10.706-22.479,11.839-36.163
					c0.665-6.058,2.102-11.631,3.901-16.914c-6.536,12.163-9.055,17.848-12.972,35.021
					C153.096,234.115,137.41,243.295,129.749,243.662z"/>
			</g>
			
				<radialGradient id="SVGID_00000138571015304249353780000015981583468299246227_" cx="19.718" cy="104.2455" r="20.854" gradientTransform="matrix(0.9842 0 0 0.9912 2.9772 -0.7712)" gradientUnits="userSpaceOnUse">
				<stop  offset="0.0785" style="stop-color:#FFFFFF"/>
				<stop  offset="0.8133" style="stop-color:#000000"/>
			</radialGradient>
			<path style="opacity:0.5;fill:url(#SVGID_00000138571015304249353780000015981583468299246227_);" d="M34.656,115.334
				c-4.726,7.268-11.644,11.117-15.451,8.6c-3.813-2.507-3.073-10.435,1.655-17.698c4.724-7.268,11.643-11.121,15.452-8.604
				C40.122,100.143,39.38,108.068,34.656,115.334z"/>
		</g>
		<defs>
			
				<filter id="Adobe_OpacityMaskFilter_00000154383467775383013370000007664095277384673418_" filterUnits="userSpaceOnUse" x="49.86" y="92.45" width="71.802" height="97.955">
				<feColorMatrix  type="matrix" values="1 0 0 0 0  0 1 0 0 0  0 0 1 0 0  0 0 0 1 0"/>
			</filter>
		</defs>
		
			<mask maskUnits="userSpaceOnUse" x="49.86" y="92.45" width="71.802" height="97.955" id="SVGID_00000072260580869322901510000018128962353641499546_">
			<g style="filter:url(#Adobe_OpacityMaskFilter_00000154383467775383013370000007664095277384673418_);">
				
					<radialGradient id="SVGID_00000054953861237245735280000003772778171146190241_" cx="112.0827" cy="157.6789" r="65.6403" gradientTransform="matrix(0.9842 0 0 0.9912 2.9772 -0.7712)" gradientUnits="userSpaceOnUse">
					<stop  offset="0.5956" style="stop-color:#FFFFFF"/>
					<stop  offset="0.6426" style="stop-color:#E9E9E9"/>
					<stop  offset="0.7408" style="stop-color:#AFAFAF"/>
					<stop  offset="0.8806" style="stop-color:#535353"/>
					<stop  offset="1" style="stop-color:#000000"/>
				</radialGradient>
				<path style="fill:url(#SVGID_00000054953861237245735280000003772778171146190241_);" d="M130.975,160.694
					c-8.923,26.21-54.151,50.724-67.893,45.972c-13.758-4.757-17.359-48.363-8.435-74.574c8.932-26.209,26.525-38.646,41.063-38.861
					C158.369,92.309,139.901,134.479,130.975,160.694z"/>
			</g>
		</mask>
		
			<radialGradient id="SVGID_00000079476278847950381380000012801992047655437206_" cx="50.9689" cy="138.988" r="54.8115" gradientTransform="matrix(0.9842 0 0 0.9912 2.9772 -0.7712)" gradientUnits="userSpaceOnUse">
			<stop  offset="0.0585" style="stop-color:#FFFFFF"/>
			<stop  offset="0.229" style="stop-color:#F2CEC9"/>
			<stop  offset="0.3995" style="stop-color:#E5A197"/>
			<stop  offset="0.4575" style="stop-color:#D7978E"/>
			<stop  offset="0.567" style="stop-color:#B37E76"/>
			<stop  offset="0.7162" style="stop-color:#77544F"/>
			<stop  offset="0.8976" style="stop-color:#271B19"/>
			<stop  offset="0.9793" style="stop-color:#000000"/>
		</radialGradient>
		
			<path style="opacity:0.9;mask:url(#SVGID_00000072260580869322901510000018128962353641499546_);fill:url(#SVGID_00000079476278847950381380000012801992047655437206_);" d="
			M117.283,155.521c-11.982,37.932-40.144,37.377-53.899,32.63c-13.747-4.748-17.661-29.849-8.736-56.06
			c8.932-26.209,27.307-43.608,41.063-38.861C109.453,97.985,130.963,112.229,117.283,155.521z"/>
		<defs>
			
				<filter id="Adobe_OpacityMaskFilter_00000129912313923245955880000001475995681029087904_" filterUnits="userSpaceOnUse" x="55.668" y="110.714" width="36.241" height="39.693">
				<feColorMatrix  type="matrix" values="1 0 0 0 0  0 1 0 0 0  0 0 1 0 0  0 0 0 1 0"/>
			</filter>
		</defs>
		
			<mask maskUnits="userSpaceOnUse" x="55.668" y="110.714" width="36.241" height="39.693" id="SVGID_00000071540095439832367250000017848001687383586712_">
			<g style="filter:url(#Adobe_OpacityMaskFilter_00000129912313923245955880000001475995681029087904_);">
				
					<radialGradient id="SVGID_00000132048348719854990460000005850847796199196092_" cx="75.0143" cy="151.2851" r="28.6525" gradientTransform="matrix(-0.9278 -0.3309 0.3285 -0.9344 83.833 286.9301)" gradientUnits="userSpaceOnUse">
					<stop  offset="0.5956" style="stop-color:#FFFFFF"/>
					<stop  offset="0.6426" style="stop-color:#E9E9E9"/>
					<stop  offset="0.7408" style="stop-color:#AFAFAF"/>
					<stop  offset="0.8806" style="stop-color:#535353"/>
					<stop  offset="1" style="stop-color:#000000"/>
				</radialGradient>
				<path style="fill:url(#SVGID_00000132048348719854990460000005850847796199196092_);" d="M57.404,116.026
					c7.467-9.48,29.613-12.932,34.587-8.958c4.975,3.98,0.143,22.445-7.324,31.923c-7.465,9.47-16.508,12.011-22.522,9.965
					C36.236,140.144,49.941,125.5,57.404,116.026z"/>
			</g>
		</mask>
		
			<radialGradient id="SVGID_00000119816273520258197900000009335882326958755772_" cx="54.5186" cy="142.9321" r="23.9231" gradientTransform="matrix(-0.9278 -0.3309 0.3285 -0.9344 83.833 286.9301)" gradientUnits="userSpaceOnUse">
			<stop  offset="0.0585" style="stop-color:#FFFFFF"/>
			<stop  offset="0.229" style="stop-color:#F2CEC9"/>
			<stop  offset="0.3995" style="stop-color:#E5A197"/>
			<stop  offset="0.4575" style="stop-color:#D7978E"/>
			<stop  offset="0.567" style="stop-color:#B37E76"/>
			<stop  offset="0.7162" style="stop-color:#77544F"/>
			<stop  offset="0.8976" style="stop-color:#271B19"/>
			<stop  offset="0.9793" style="stop-color:#000000"/>
		</radialGradient>
		
			<path style="opacity:0.7;mask:url(#SVGID_00000071540095439832367250000017848001687383586712_);fill:url(#SVGID_00000119816273520258197900000009335882326958755772_);" d="
			M62.288,120.162c10.415-13.846,21.922-9.49,26.896-5.52c4.973,3.974,2.951,14.871-4.517,24.349
			c-7.465,9.47-17.538,13.938-22.522,9.965C57.183,144.988,50.398,135.972,62.288,120.162z"/>
	</g>
</g>
</svg>
